<?xml version="1.0" standalone="no"?>
<!DOCTYPE svg PUBLIC "-//W3C//DTD SVG 20010904//EN"
 "http://www.w3.org/TR/2001/REC-SVG-20010904/DTD/svg10.dtd">
<svg version="1.0" xmlns="http://www.w3.org/2000/svg"
 width="100%" height="100%" viewBox="0 0 740.000000 740.000000"
 preserveAspectRatio="xMidYMid meet">

<g transform="translate(0.000000,740.000000) scale(0.100000,-0.100000)"
fill="#000000" stroke="none">
<path d="M2685 6950 l-29 -30 28 -29 27 -28 -6 -319 -7 -319 336 -335 c185
-184 336 -338 336 -341 0 -4 -77 -10 -171 -14 l-171 -7 -174 173 -174 174 0
47 0 48 -60 0 -60 0 0 -60 0 -60 53 0 53 0 173 -172 173 -173 161 3 162 4 -62
-64 -62 -63 -7 -167 -7 -168 -69 0 -70 0 -96 90 -96 90 -241 0 c-241 0 -242 0
-264 24 -22 24 -22 25 -20 326 l2 302 -237 237 c-188 188 -234 239 -224 249
10 10 6 19 -20 44 l-32 33 -32 -32 -32 -33 29 -30 c17 -18 35 -28 44 -25 10 4
91 -70 248 -227 l233 -233 0 -277 c0 -153 -3 -278 -7 -278 -5 0 -216 208 -470
462 l-463 463 0 47 0 48 -57 0 -58 0 1 -57 2 -58 48 -3 49 -3 483 -482 c265
-265 482 -485 482 -489 0 -5 -33 -8 -72 -8 l-73 0 -392 392 c-262 262 -396
389 -403 382 -6 -6 115 -134 365 -384 206 -206 375 -378 375 -382 0 -5 -30 -8
-68 -8 l-67 0 -402 403 -402 402 -3 49 -3 48 -58 2 -57 1 0 -57 0 -58 48 0 47
0 388 -388 c213 -213 387 -390 387 -395 0 -4 -20 -7 -45 -7 -41 0 -45 2 -45
25 0 24 -3 25 -60 25 l-60 0 0 -60 0 -60 60 0 c57 0 60 1 60 25 0 24 3 25 62
25 l62 0 58 -57 c32 -32 58 -61 58 -65 0 -4 -125 -8 -278 -8 l-277 0 -233 233
c-157 157 -231 238 -227 248 3 9 -7 27 -25 44 l-30 29 -33 -32 -32 -32 33 -32
c25 -26 34 -30 44 -20 10 10 61 -36 249 -224 l237 -237 303 2 304 2 119 -119
c68 -69 116 -125 112 -131 -5 -8 -124 -11 -403 -11 -386 0 -395 0 -400 20 -5
17 -14 20 -64 20 -52 0 -59 -2 -59 -20 0 -19 -7 -20 -104 -20 l-104 0 -219
226 c-201 208 -218 229 -221 265 l-3 39 -50 0 -49 0 0 -45 0 -45 39 0 c38 0
46 -7 262 -230 l223 -230 113 0 113 0 0 -30 c0 -29 1 -30 48 -30 47 0 49 -1
147 -100 l100 -100 -140 0 -139 0 -33 32 c-31 30 -34 31 -51 15 -10 -9 -23
-17 -28 -17 -5 0 -43 34 -84 76 l-75 76 -319 -7 -319 -6 -29 27 -28 28 -33
-32 -32 -32 32 -32 33 -32 28 27 28 27 315 0 315 0 73 -74 c46 -46 71 -78 66
-86 -10 -16 63 -90 82 -83 10 4 87 -66 229 -208 l214 -214 -77 -77 c-55 -55
-85 -78 -102 -78 -18 0 -74 51 -234 215 l-209 215 -339 0 c-332 0 -339 0 -339
20 0 17 -7 20 -45 20 l-45 0 0 -45 0 -45 45 0 c33 0 45 4 45 15 0 13 43 15
328 15 l328 0 197 -198 c108 -109 197 -201 197 -205 0 -4 -37 -7 -83 -7 l-83
0 -44 45 c-41 41 -43 47 -31 67 12 19 9 25 -28 61 l-40 41 -41 -44 -41 -44 40
-40 c35 -34 42 -38 56 -26 14 12 21 9 53 -23 l37 -37 -550 0 -549 0 -38 37
-38 37 -43 -42 -42 -42 42 -42 43 -42 38 37 38 37 560 0 560 0 54 -55 54 -55
-532 0 c-466 0 -532 -2 -532 -15 0 -13 66 -15 537 -15 l537 0 -59 -60 -59 -60
-560 0 -560 0 -38 37 -38 37 -43 -42 -42 -42 42 -42 43 -42 38 37 38 37 549 0
550 0 -37 -37 c-32 -32 -39 -35 -53 -23 -14 12 -22 8 -58 -28 l-42 -42 43 -42
42 -43 41 41 c37 37 40 43 28 62 -12 20 -10 26 31 67 l44 45 83 0 c46 0 83 -3
83 -8 0 -4 -89 -96 -198 -205 l-197 -197 -328 0 c-284 0 -327 2 -327 15 0 11
-12 15 -45 15 l-45 0 0 -45 0 -45 45 0 c38 0 45 3 45 20 0 20 7 20 339 20
l339 0 208 215 c165 171 213 215 234 215 19 0 46 -21 103 -78 l77 -77 -219
-219 c-143 -143 -221 -214 -226 -206 -10 17 -87 -59 -80 -79 4 -9 -21 -42 -67
-88 l-72 -73 -315 0 -315 0 -28 27 -28 27 -33 -32 -32 -32 32 -32 33 -32 29
28 29 28 318 -7 319 -7 75 76 c41 42 79 76 84 76 5 0 18 -8 28 -17 17 -16 20
-15 51 15 l33 32 139 0 140 0 -100 -100 c-98 -99 -100 -100 -147 -100 -47 0
-48 -1 -48 -30 l0 -30 -112 0 -113 0 -223 -230 c-217 -223 -225 -230 -263
-230 l-39 0 0 -45 0 -45 49 0 50 0 3 39 c3 36 21 57 221 265 l219 226 104 0
c97 0 104 -1 104 -20 0 -18 7 -20 59 -20 50 0 59 3 64 20 5 20 14 20 400 20
279 0 398 -3 403 -11 4 -6 -44 -62 -112 -130 l-119 -120 -304 2 -304 1 -236
-236 c-188 -188 -239 -234 -249 -224 -10 10 -19 6 -44 -20 l-33 -32 32 -32 33
-32 30 29 c18 17 28 35 25 44 -4 10 71 92 227 248 l233 234 278 -2 c152 -1
277 -5 277 -8 0 -4 -26 -32 -58 -64 l-58 -57 -62 0 c-59 0 -62 1 -62 25 0 24
-3 25 -60 25 l-60 0 0 -60 0 -60 59 0 c53 0 60 2 63 21 2 17 11 22 46 23 23 1
42 0 42 -3 0 -3 -174 -180 -387 -393 l-388 -388 -47 0 -48 0 0 -57 0 -58 57 1
58 2 3 48 3 49 402 403 402 403 73 -2 c39 -1 72 -5 72 -8 0 -3 -169 -175 -376
-382 -247 -247 -374 -381 -369 -389 5 -8 141 121 404 384 l397 396 67 0 c37 0
67 -3 67 -8 0 -4 -217 -224 -482 -489 l-483 -482 -49 -3 -48 -3 -2 -58 -1 -57
58 0 57 0 0 47 0 48 462 462 c255 255 466 463 470 463 4 0 7 -125 8 -277 l0
-278 -233 -233 c-157 -156 -238 -231 -248 -227 -9 3 -27 -7 -44 -25 l-29 -30
32 -33 32 -32 32 33 c26 25 30 34 20 44 -10 10 36 61 224 249 l237 237 -2 304
c-2 285 -1 305 16 320 16 15 50 17 262 19 l242 1 98 94 98 94 71 0 70 0 7
-168 7 -167 61 -63 62 -63 -163 2 -163 3 -172 -172 -172 -172 -53 0 -52 0 0
-60 0 -60 60 0 60 0 0 48 0 47 174 174 173 173 172 -7 c94 -4 171 -10 171 -14
0 -3 -151 -157 -336 -341 l-336 -335 7 -318 7 -318 -28 -30 -28 -29 32 -33 32
-32 32 32 32 33 -27 28 -27 28 0 315 0 314 333 333 332 332 143 -143 142 -142
-110 -110 c-103 -103 -111 -109 -131 -96 -20 12 -25 9 -63 -28 l-41 -41 43
-42 42 -43 42 42 c36 36 40 44 28 58 -12 14 0 30 98 128 l112 112 112 -112
c98 -98 110 -114 98 -128 -12 -14 -8 -22 28 -58 l42 -42 42 43 43 42 -41 41
c-38 37 -43 40 -63 28 -20 -13 -28 -7 -131 96 l-110 110 142 142 143 143 332
-332 333 -333 0 -314 0 -315 -27 -28 -27 -28 32 -33 32 -32 32 32 32 33 -27
28 -28 29 7 319 6 319 -336 335 c-185 184 -336 338 -336 341 0 4 77 10 171 14
l172 7 173 -173 174 -174 0 -47 0 -48 60 0 60 0 0 60 0 60 -52 0 -53 0 -171
171 -172 172 -163 -2 -164 -2 62 63 63 63 7 168 6 167 70 0 70 0 96 -91 96
-91 241 -2 c224 -1 243 -2 263 -20 21 -19 22 -25 21 -324 l-2 -305 236 -236
c188 -188 234 -239 224 -249 -10 -10 -6 -19 20 -44 l32 -33 32 32 32 33 -29
30 c-17 18 -35 28 -44 25 -10 -4 -92 71 -248 227 l-234 233 2 278 c1 152 5
277 8 277 3 0 214 -208 469 -463 l462 -462 0 -48 0 -47 58 0 57 0 -1 56 -2 57
-46 1 -46 1 -485 485 c-267 267 -485 487 -485 490 0 3 32 4 71 3 l72 -1 392
-392 c262 -262 395 -388 400 -380 5 8 -121 141 -369 389 -207 207 -376 378
-376 381 0 3 35 4 77 2 l78 -3 398 -397 397 -397 0 -46 c0 -25 2 -48 4 -50 2
-2 29 -2 60 -1 l56 4 0 54 0 54 -48 0 -47 0 -388 388 c-213 213 -387 389 -387
392 0 3 20 4 45 2 36 -3 45 -8 45 -23 0 -17 8 -19 60 -19 l60 0 0 60 0 60 -60
0 c-57 0 -60 -1 -60 -25 0 -24 -3 -25 -62 -25 l-62 0 -58 57 c-32 32 -58 60
-58 64 0 3 125 7 278 8 l277 2 233 -234 c156 -156 231 -238 227 -248 -3 -9 7
-27 25 -44 l30 -29 33 32 32 32 -33 32 c-25 26 -34 30 -44 20 -10 -10 -61 36
-249 224 l-236 236 -304 -1 -304 -2 -119 120 c-68 68 -116 124 -112 130 5 8
125 11 407 11 392 0 399 0 399 -20 0 -18 7 -20 60 -20 53 0 60 2 60 20 0 19 7
20 104 20 l104 0 219 -226 c201 -208 218 -228 221 -265 l3 -39 50 0 49 0 0 45
0 45 -39 0 c-38 0 -46 7 -262 230 l-223 230 -113 0 -113 0 0 30 c0 29 -1 30
-48 30 -47 0 -49 1 -147 100 l-100 100 140 0 139 0 33 -32 c31 -30 34 -31 51
-15 10 9 23 17 28 17 5 0 43 -34 84 -76 l75 -76 319 6 320 6 28 -27 28 -27 33
32 32 32 -32 32 -33 32 -28 -27 -28 -27 -315 0 -315 0 -72 73 c-46 46 -71 79
-67 88 7 20 -70 96 -80 79 -5 -8 -83 63 -226 206 l-219 219 77 77 c56 56 85
78 103 78 20 0 70 -47 233 -215 l209 -215 339 0 c332 0 339 0 339 -20 0 -17 7
-20 45 -20 l45 0 0 45 0 45 -45 0 c-33 0 -45 -4 -45 -15 0 -13 -43 -15 -328
-15 l-328 0 -197 198 c-108 109 -197 201 -197 205 0 4 37 7 83 7 l83 0 44 -45
c41 -41 43 -47 31 -67 -12 -19 -9 -25 28 -62 l41 -41 42 43 43 42 -42 42 c-36
36 -44 40 -58 28 -14 -12 -21 -9 -53 23 l-37 37 550 0 549 0 38 -37 38 -37 43
42 42 42 -42 42 -43 42 -38 -37 -38 -37 -560 0 -560 0 -59 60 -59 60 537 0
c471 0 537 2 537 15 0 13 -66 15 -532 15 l-532 0 54 55 54 55 560 0 560 0 38
-37 38 -37 43 42 42 42 -42 42 -43 42 -38 -37 -38 -37 -549 0 -550 0 37 37
c32 32 39 35 53 23 14 -12 22 -8 58 28 l42 42 -43 42 -42 43 -41 -41 c-37 -37
-40 -43 -28 -62 12 -20 10 -26 -31 -67 l-44 -45 -83 0 c-46 0 -83 3 -83 7 0 4
89 96 197 205 l197 198 328 0 c285 0 328 -2 328 -15 0 -11 12 -15 45 -15 l45
0 0 45 0 45 -45 0 c-38 0 -45 -3 -45 -20 0 -20 -7 -20 -339 -20 l-339 0 -209
-215 c-163 -169 -213 -215 -233 -215 -18 0 -47 21 -103 78 l-77 77 219 219
c143 143 221 214 226 206 10 -17 87 59 80 79 -4 9 21 42 67 88 l72 73 315 0
315 0 28 -27 28 -27 33 32 32 32 -32 32 -33 32 -29 -28 -30 -29 -318 8 -318 7
-75 -76 c-41 -42 -79 -76 -84 -76 -5 0 -18 8 -28 17 -17 16 -20 15 -51 -15
l-33 -32 -139 0 -140 0 100 100 c98 99 100 100 147 100 47 0 48 1 48 30 l0 30
113 0 113 0 223 230 c216 223 224 230 262 230 l39 0 0 45 0 45 -50 0 -50 0 0
-37 c0 -36 -13 -52 -221 -265 l-221 -228 -104 0 c-97 0 -104 1 -104 20 0 18
-7 20 -60 20 -53 0 -60 -2 -60 -20 0 -20 -7 -20 -399 -20 -282 0 -402 3 -407
11 -4 6 44 62 112 131 l119 119 303 -2 303 -3 237 237 c189 189 240 235 250
225 10 -10 19 -6 44 20 l33 32 -32 32 -33 32 -30 -29 c-18 -17 -28 -35 -25
-44 4 -10 -70 -91 -227 -248 l-233 -233 -277 0 c-153 0 -278 4 -278 8 0 4 26
33 58 65 l58 57 62 0 c59 0 62 -1 62 -25 0 -24 3 -25 60 -25 l60 0 0 60 0 60
-60 0 c-58 0 -60 -1 -60 -25 0 -24 -3 -26 -45 -24 -25 2 -45 5 -45 8 0 4 174
180 388 394 l387 387 48 0 47 0 0 58 0 57 -57 -1 -58 -2 -3 -48 -3 -49 -402
-402 -402 -403 -67 0 c-38 0 -68 3 -68 8 0 4 169 176 375 382 250 250 371 378
365 384 -7 7 -141 -120 -403 -382 l-392 -392 -73 0 c-39 0 -72 3 -72 8 0 4
217 224 483 489 l482 482 50 3 50 3 3 58 4 57 -61 0 -61 0 0 -48 0 -47 -463
-463 c-254 -254 -465 -462 -469 -462 -3 0 -7 125 -7 278 l-2 277 234 233 c156
156 238 231 248 227 9 -3 27 7 44 25 l29 30 -32 33 -32 32 -32 -33 c-26 -25
-30 -34 -20 -44 10 -10 -36 -61 -224 -249 l-236 -236 1 -303 c2 -300 2 -303
-20 -326 -22 -24 -23 -24 -263 -24 l-241 0 -97 -90 -96 -90 -70 0 -69 0 -7
168 -7 167 -62 63 -62 63 163 -2 163 -3 172 172 172 172 53 0 52 0 0 60 0 60
-60 0 -60 0 0 -48 0 -47 -174 -174 -174 -173 -171 7 c-94 4 -171 10 -171 14 0
3 151 157 336 341 l336 335 -7 319 -7 318 28 29 28 29 -32 33 -32 32 -32 -32
-32 -33 27 -28 27 -28 0 -315 0 -314 -333 -333 -332 -332 -143 143 -142 142
110 110 c103 103 111 109 131 96 20 -12 25 -9 63 28 l41 41 -43 42 -42 43 -42
-42 c-36 -36 -40 -44 -28 -58 12 -14 0 -30 -98 -128 l-112 -112 -112 112 c-98
98 -110 114 -98 128 12 14 8 22 -28 58 l-41 41 -41 -44 -41 -44 39 -39 c36
-35 41 -38 61 -26 20 13 28 7 131 -96 l111 -111 -143 -142 -143 -142 -332 333
-333 332 0 314 0 315 27 28 27 28 -29 30 c-16 17 -32 30 -35 30 -3 0 -19 -13
-35 -30z m-1325 -674 c0 -30 -3 -34 -30 -38 -37 -6 -40 -3 -40 39 0 31 2 33
35 33 33 0 35 -2 35 -34z m4748 -3 c-3 -33 -6 -37 -35 -40 -32 -4 -33 -3 -33
36 0 40 1 41 36 41 35 0 35 -1 32 -37z m-2660 -170 l-27 -27 -26 24 -25 24 27
28 27 28 25 -25 26 -25 -27 -27z m559 48 l22 -28 -25 -24 -25 -23 -26 27 -27
26 24 26 c13 14 26 25 29 24 3 0 16 -13 28 -28z m-2839 -73 c-3 -30 -6 -33
-40 -36 -37 -3 -38 -3 -38 32 0 35 1 36 41 36 39 0 40 -1 37 -32z m5142 -3 c0
-33 -2 -35 -34 -35 -30 0 -34 3 -38 30 -6 37 -3 40 39 40 31 0 33 -2 33 -35z
m-3650 -165 c0 -39 -1 -40 -35 -40 -34 0 -35 1 -35 40 0 39 1 40 35 40 34 0
35 -1 35 -40z m2155 0 c0 -33 -2 -35 -37 -38 l-38 -3 0 41 0 41 38 -3 c35 -3
37 -5 37 -38z m-970 -220 l140 -140 -143 -143 -142 -142 -142 142 -143 143
140 140 c77 77 142 140 145 140 3 0 68 -63 145 -140z m-302 -308 l137 -137
-60 -60 -61 -60 7 -194 c5 -141 4 -193 -4 -190 -6 2 -83 76 -172 163 l-160
160 0 151 0 152 79 76 c43 42 83 77 87 77 5 0 71 -62 147 -138z m548 61 l79
-76 0 -152 0 -151 -160 -160 c-89 -87 -165 -161 -171 -162 -6 -3 -8 61 -3 190
l6 193 -61 60 -61 60 137 137 c76 76 142 138 147 138 4 0 44 -35 87 -77z
m-2269 -218 c5 -43 3 -45 -39 -45 -32 0 -33 1 -33 40 0 39 1 40 34 40 31 0 34
-3 38 -35z m3828 -5 c0 -39 -1 -40 -35 -40 -34 0 -35 1 -35 40 0 39 1 40 35
40 34 0 35 -1 35 -40z m-1893 -52 l53 -52 0 -206 0 -206 -55 -54 -55 -54 -55
54 -55 54 0 205 0 205 52 53 c29 29 55 53 57 53 3 0 29 -23 58 -52z m-1395
-155 c109 -109 198 -201 198 -205 0 -5 -38 -8 -85 -8 -74 0 -85 2 -85 17 0 10
-84 102 -187 205 l-188 188 75 0 75 0 197 -197z m100 100 l98 -97 241 3 242 3
78 -78 79 -79 0 -67 c0 -38 -3 -68 -7 -68 -4 0 -22 14 -40 32 -29 28 -33 38
-33 85 l0 53 -60 0 -60 0 0 -60 0 -60 47 0 c44 0 52 -4 100 -52 l53 -52 0 -95
c0 -74 -4 -98 -17 -113 -9 -10 -21 -18 -27 -18 -6 0 -90 79 -186 175 l-175
175 -90 0 -90 0 -205 205 -205 205 80 0 80 0 97 -97z m470 20 c43 -43 78 -81
78 -85 0 -5 -98 -8 -218 -8 l-217 0 -85 85 -85 85 225 0 225 0 77 -77z m1978
-8 l-85 -85 -217 0 c-120 0 -218 3 -218 7 0 4 35 43 77 85 l78 78 225 0 225 0
-85 -85z m80 -120 l-205 -205 -90 0 -90 0 -180 -180 -179 -179 -23 21 c-21 19
-23 30 -23 117 l0 95 52 53 c49 49 56 53 100 53 l48 0 0 60 0 60 -60 0 -60 0
0 -53 c0 -49 -3 -56 -40 -92 l-40 -39 0 75 0 74 79 79 78 78 242 -3 241 -3 98
97 97 97 80 0 80 0 -205 -205z m207 17 c-103 -103 -187 -195 -187 -205 0 -15
-11 -17 -85 -17 -47 0 -85 3 -85 7 0 4 89 97 197 205 l198 198 75 0 75 0 -188
-188z m-1997 -57 c0 -30 -1 -55 -3 -55 -1 0 -27 25 -57 55 l-54 55 57 0 57 0
0 -55z m368 -315 c-3 -32 -6 -35 -37 -38 -32 -3 -43 5 -168 130 l-133 133 0
75 0 75 170 -170 c162 -161 171 -172 168 -205z m470 93 c-125 -126 -135 -134
-168 -131 -32 3 -35 6 -38 37 -3 32 6 44 165 203 l168 168 3 -72 3 -72 -133
-133z m272 274 c0 -1 -25 -27 -55 -57 l-55 -54 0 57 0 57 55 0 c30 0 55 -1 55
-3z m-1210 -178 l0 -40 -37 3 c-36 3 -38 5 -41 41 l-3 37 40 0 41 0 0 -41z
m1278 4 c-3 -36 -5 -38 -40 -41 l-38 -3 0 40 0 41 41 0 40 0 -3 -37z m-898
-255 c0 -5 -32 -8 -72 -8 l-72 0 -53 52 -53 52 0 74 0 74 125 -119 c69 -65
125 -121 125 -125z m638 45 l-52 -53 -73 0 c-40 0 -73 2 -73 5 0 3 55 59 123
124 l122 119 3 -71 3 -70 -53 -54z m-2598 177 c0 -5 -13 -10 -30 -10 -16 0
-30 5 -30 10 0 6 14 10 30 10 17 0 30 -4 30 -10z m4420 0 c0 -5 -13 -10 -30
-10 -16 0 -30 5 -30 10 0 6 14 10 30 10 17 0 30 -4 30 -10z m-4410 -50 c0 -17
-7 -20 -40 -20 -33 0 -40 3 -40 20 0 17 7 20 40 20 33 0 40 -3 40 -20z m609
-17 c-17 -21 -72 -80 -120 -130 l-88 -93 -84 0 -83 0 -107 108 c-72 72 -107
114 -107 130 l0 22 311 0 311 0 -33 -37z m218 -224 l-5 -261 -27 -28 c-26 -27
-30 -28 -168 -35 l-142 -7 -63 -61 -64 -62 4 162 3 162 -50 51 -49 50 71 0 71
0 138 145 137 145 75 0 75 0 -6 -261z m270 228 c21 -25 34 -57 52 -137 l24
-105 86 -87 86 -88 -128 0 -127 0 0 35 0 35 -60 0 -60 0 0 -35 c0 -34 -1 -35
-37 -35 -24 0 -45 -8 -60 -22 l-23 -21 0 240 c0 132 3 243 7 246 3 4 52 7 109
7 l102 0 29 -33z m183 -2 c19 -19 29 -35 23 -35 -42 0 -161 34 -178 50 -19 20
-19 20 51 20 67 0 72 -2 104 -35z m1935 16 c-17 -16 -137 -51 -176 -51 -7 0 2
16 21 35 32 33 37 35 104 35 69 0 70 0 51 -19z m273 -230 l2 -245 -23 22 c-15
14 -36 22 -60 22 -36 0 -37 1 -37 35 l0 35 -60 0 -60 0 0 -35 0 -35 -127 0
-128 0 86 88 86 87 24 105 c18 80 30 112 53 138 l29 33 106 -3 106 -3 3 -244z
m306 104 l138 -145 71 0 71 0 -49 -50 -49 -50 3 -163 2 -162 -63 61 -63 62
-140 6 c-135 7 -141 8 -168 35 l-28 27 -6 262 -6 262 75 0 75 0 137 -145z
m526 123 c0 -15 -35 -58 -107 -130 l-108 -108 -83 0 -83 0 -88 93 c-48 50
-103 109 -120 130 l-33 37 311 0 311 0 0 -22z m100 2 c0 -17 -7 -20 -40 -20
-33 0 -40 3 -40 20 0 17 7 20 40 20 33 0 40 -3 40 -20z m-3130 -76 c65 -15 68
-16 190 -139 l124 -125 -27 -28 c-35 -37 -22 -51 15 -15 l28 27 30 -29 c17
-16 30 -32 30 -37 0 -4 -66 -8 -148 -8 l-147 0 -94 94 -93 93 -23 97 -23 98
37 -7 c20 -3 65 -13 101 -21z m1874 -70 l-22 -97 -93 -93 -94 -94 -147 0 c-82
0 -148 3 -148 8 0 4 14 20 31 36 l30 29 28 -27 c36 -35 49 -21 14 16 l-27 29
124 124 125 125 85 19 c129 29 121 36 94 -75z m-1074 21 l23 -25 -26 0 c-22 0
-27 5 -27 25 0 14 1 25 3 25 2 0 14 -11 27 -25z m190 0 c0 -20 -5 -25 -27 -25
l-26 0 23 25 c13 14 25 25 27 25 2 0 3 -11 3 -25z m-367 -80 l122 0 3 -44 c3
-43 1 -47 -65 -113 l-67 -68 -85 0 -85 0 -48 47 -47 46 29 34 c28 31 30 40 30
110 l0 77 45 -44 46 -45 122 0z m758 -101 l29 -28 -47 -48 -47 -48 -86 0 -86
0 -67 68 c-66 66 -68 70 -65 113 l3 44 122 0 123 0 42 43 43 42 3 -78 c3 -73
5 -81 33 -108z m-551 99 c0 -10 -42 -53 -52 -53 -10 0 -11 44 -1 53 8 9 53 9
53 0z m158 -25 c4 -34 -4 -35 -35 -6 -30 28 -29 40 5 36 21 -2 28 -9 30 -30z
m-2399 -1 c19 -22 20 -25 6 -37 -13 -11 -20 -9 -40 10 -19 18 -22 26 -14 37
16 18 22 17 48 -10z m2406 -87 l110 -110 -98 0 c-58 0 -97 -4 -97 -10 0 -6 43
-10 108 -10 l108 0 42 -43 c55 -56 45 -67 -65 -67 -67 0 -83 3 -83 15 0 11
-12 15 -50 15 -38 0 -50 -4 -50 -15 0 -11 -11 -15 -40 -15 -29 0 -40 4 -40 15
0 11 -12 15 -50 15 -38 0 -50 -4 -50 -15 0 -12 -16 -15 -83 -15 -110 0 -120
11 -65 67 l42 43 108 0 c65 0 108 4 108 10 0 6 -39 10 -97 10 l-98 0 110 110
c60 61 112 110 115 110 3 0 55 -49 115 -110z m2224 97 c17 -21 -32 -65 -53
-48 -13 11 -12 16 6 37 25 28 31 29 47 11z m-4679 -62 c13 -14 21 -25 18 -25
-2 0 -15 11 -28 25 -13 14 -21 25 -18 25 2 0 15 -11 28 -25z m4710 22 c0 -2
-12 -14 -27 -28 l-28 -24 24 28 c23 25 31 32 31 24z m-4256 -66 l58 -59 -7
-171 c-4 -94 -10 -171 -14 -171 -3 0 -102 96 -220 214 -188 188 -212 216 -200
230 12 12 41 15 169 16 l156 0 58 -59z m4157 43 c11 -13 -16 -44 -202 -230
-117 -118 -217 -214 -220 -214 -4 0 -10 77 -14 171 l-7 171 58 59 58 59 157 0
c130 0 159 -3 170 -16z m-3376 -119 c0 -16 -8 -21 -37 -23 -35 -3 -38 -1 -38
23 0 24 3 26 38 23 29 -2 37 -7 37 -23z m2285 0 c0 -22 -4 -25 -34 -25 -37 0
-51 12 -42 35 3 9 19 15 41 15 31 0 35 -3 35 -25z m-2380 -60 c0 -11 13 -15
53 -15 49 0 56 -3 92 -40 l39 -40 -152 0 c-150 0 -152 0 -152 22 0 33 58 88
92 88 18 0 28 -5 28 -15z m427 -17 l33 -32 -22 -23 c-20 -21 -30 -23 -117 -23
l-96 0 -52 51 c-29 28 -53 52 -53 55 0 2 62 4 137 4 l137 0 33 -32z m83 23 c0
-5 -7 -14 -15 -21 -12 -10 -18 -10 -30 0 -23 19 -18 30 15 30 17 0 30 -4 30
-9z m277 -33 l43 -42 -26 -27 c-37 -38 -21 -59 17 -23 23 22 32 25 41 16 7 -7
23 -12 37 -12 25 0 25 0 -9 -35 -27 -27 -31 -38 -22 -47 10 -10 -3 -28 -60
-85 -40 -40 -76 -73 -80 -73 -5 0 -8 19 -8 43 0 24 -5 48 -12 55 -9 9 -6 18
16 41 36 38 15 54 -23 17 l-27 -26 -79 80 -79 80 39 40 c39 40 40 40 114 40
75 0 75 0 118 -42z m113 34 c0 -5 -11 -19 -25 -32 l-25 -23 -25 23 c-14 13
-25 27 -25 32 0 4 23 8 50 8 28 0 50 -4 50 -8z m700 0 c0 -5 -11 -19 -25 -32
l-25 -23 -25 23 c-14 13 -25 27 -25 32 0 4 23 8 50 8 28 0 50 -4 50 -8z m245
-32 l39 -40 -79 -80 -79 -80 -27 26 c-38 37 -59 21 -23 -17 22 -23 25 -32 16
-41 -7 -7 -12 -31 -12 -55 0 -24 -3 -43 -6 -43 -4 0 -40 32 -80 72 -59 57 -71
74 -62 85 9 11 5 21 -20 46 l-32 31 -35 -34 -35 -34 32 -33 c24 -25 35 -30 45
-21 10 8 33 -7 101 -69 69 -64 88 -87 90 -112 3 -26 0 -31 -17 -31 -18 0 -21
-6 -21 -50 0 -38 4 -50 15 -50 11 0 15 -11 15 -40 0 -29 -4 -40 -15 -40 -11 0
-15 -12 -15 -50 0 -43 3 -50 20 -50 15 0 20 -7 20 -28 0 -21 -14 -41 -57 -83
-113 -107 -121 -113 -136 -101 -11 9 -21 4 -45 -21 l-32 -33 35 -34 35 -34 32
31 c25 26 29 35 20 46 -10 12 2 28 65 88 l78 74 3 -45 c2 -24 8 -50 14 -58 8
-9 4 -20 -16 -41 -36 -38 -15 -53 23 -17 l27 26 79 -80 79 -80 -39 -40 c-39
-40 -40 -40 -114 -40 -75 0 -75 0 -118 42 l-43 42 26 27 c37 38 21 59 -17 23
-23 -22 -32 -25 -41 -16 -8 8 -46 12 -105 12 -86 0 -93 1 -93 20 0 17 -7 20
-50 20 -38 0 -50 -4 -50 -15 0 -11 -11 -15 -40 -15 -29 0 -40 4 -40 15 0 11
-12 15 -50 15 -43 0 -50 -3 -50 -20 0 -18 -7 -20 -65 -20 -36 0 -65 4 -65 8 0
5 14 21 30 37 l30 29 -32 33 c-25 25 -34 30 -45 21 -15 -12 -21 -7 -140 107
-39 36 -53 57 -53 77 0 21 5 28 20 28 17 0 20 7 20 50 0 38 -4 50 -15 50 -11
0 -15 11 -15 40 0 29 4 40 15 40 11 0 15 12 15 50 0 44 -3 50 -21 50 -17 0
-20 5 -17 31 2 25 21 48 90 112 68 62 91 77 101 69 10 -9 21 -4 45 21 l32 33
-30 29 c-16 16 -30 32 -30 37 0 4 29 8 65 8 58 0 65 -2 65 -20 0 -17 7 -20 50
-20 38 0 50 4 50 15 0 11 11 15 40 15 29 0 40 -4 40 -15 0 -11 12 -15 50 -15
43 0 50 3 50 20 0 19 7 20 93 20 59 0 97 4 105 12 9 9 18 6 41 -16 38 -36 55
-15 17 22 l-26 26 42 43 42 43 76 0 c75 0 76 0 115 -40z m105 31 c0 -5 -7 -14
-15 -21 -12 -10 -18 -10 -30 0 -23 19 -18 30 15 30 17 0 30 -4 30 -9z m330 3
c0 -3 -21 -28 -47 -55 l-46 -49 -100 0 c-79 0 -104 3 -119 17 -24 22 -23 32 9
65 l27 28 138 0 c76 0 138 -3 138 -6z m207 -26 c19 -18 33 -42 33 -55 l0 -23
-152 0 -152 0 39 40 c36 37 44 40 91 40 37 0 54 4 58 15 9 25 48 17 83 -17z
m-427 -335 l0 -103 -53 0 -52 0 -105 105 -105 105 79 79 79 80 78 -82 78 -82
1 -102z m-1480 182 l75 -75 -105 -105 -105 -105 -53 0 -53 0 1 103 2 102 76
78 c42 42 79 77 82 77 3 0 39 -34 80 -75z m-160 47 c0 -4 -18 -26 -40 -47
l-40 -39 -41 39 -40 40 73 6 c40 3 76 6 81 7 4 1 7 -2 7 -6z m1663 -2 l71 0
-39 -40 c-21 -22 -44 -40 -49 -40 -13 0 -86 71 -86 83 0 5 7 6 16 3 9 -3 48
-6 87 -6z m-2369 -52 c-26 -29 -87 -93 -136 -143 l-87 -90 -56 55 c-30 30 -55
58 -55 63 0 5 35 45 77 88 l76 79 115 0 115 0 -49 -52z m160 16 l29 -35 -22
-22 -21 -23 40 -39 c37 -37 40 -38 58 -22 10 9 23 17 28 17 5 0 47 -38 94 -85
l85 -85 -195 0 -194 0 -61 -60 -61 -60 -73 74 -73 73 147 152 c103 105 154
151 169 150 11 0 34 -16 50 -35z m391 -14 l49 -50 -150 0 -150 0 -34 35 c-23
24 -37 32 -45 25 -8 -7 -19 -2 -35 15 l-23 25 169 0 170 0 49 -50z m2235 25
c-16 -17 -27 -22 -35 -15 -8 7 -22 -1 -45 -25 l-34 -35 -150 0 -150 0 49 50
49 50 170 0 169 0 -23 -25z m245 -126 l148 -151 -74 -74 -73 -74 -61 60 -61
60 -194 0 -195 0 90 90 89 90 23 -22 23 -22 40 39 40 39 -21 23 -22 22 29 35
c16 19 38 35 50 35 14 1 68 -47 169 -150z m197 74 c43 -43 78 -82 78 -87 0
-11 -100 -116 -111 -116 -3 0 -66 63 -139 140 l-132 140 113 0 114 0 77 -77z
m-2993 -36 c19 -22 20 -25 6 -37 -13 -11 -20 -9 -40 10 -19 18 -22 26 -14 37
16 18 22 17 48 -10z m2550 10 c8 -11 5 -19 -14 -37 -20 -19 -27 -21 -40 -10
-14 12 -13 15 6 37 26 27 32 28 48 10z m-2179 -127 l0 -100 -58 0 -57 0 -100
100 -100 100 158 0 157 0 0 -100z m1975 0 l-100 -100 -57 0 -58 0 0 100 0 100
157 0 158 0 -100 -100z m-3497 13 l-27 -27 -26 24 -25 24 27 28 27 28 25 -25
26 -25 -27 -27z m1902 9 c0 -40 -5 -52 -37 -84 -36 -37 -39 -38 -107 -38 l-71
0 95 95 c104 105 120 108 120 27z m1144 -120 c-66 -3 -68 -2 -106 35 -33 32
-38 43 -38 83 0 83 14 80 117 -22 l94 -93 -67 -3z m1835 137 c1 -3 -10 -16
-24 -29 l-26 -24 -26 27 -27 26 23 25 24 25 28 -22 c15 -12 28 -25 28 -28z
m-4266 -57 c32 -32 54 -61 51 -65 -10 -9 -234 -9 -234 0 0 9 112 123 120 123
3 0 31 -26 63 -58z m3699 1 c32 -32 58 -61 58 -65 0 -10 -224 -11 -234 -1 -6
6 101 123 113 123 3 0 31 -26 63 -57z m-5382 -58 l24 -26 -27 -27 -27 -27 -27
27 -27 27 24 26 c13 14 26 25 30 25 4 0 17 -11 30 -25z m7000 0 l24 -26 -27
-27 -27 -27 -27 27 -27 27 24 26 c13 14 26 25 30 25 4 0 17 -11 30 -25z
m-4030 -15 c0 -5 -7 -10 -15 -10 -11 0 -15 -12 -15 -50 0 -38 4 -50 15 -50 11
0 15 -11 15 -40 0 -29 -4 -40 -15 -40 -11 0 -15 -12 -15 -50 0 -38 4 -50 15
-50 8 0 15 -8 15 -17 0 -13 -8 -9 -33 15 -32 31 -35 32 -123 32 l-90 0 -54 55
-54 55 54 55 54 55 91 0 c85 0 93 2 115 25 25 26 40 32 40 15z m1040 -15 c22
-23 30 -25 115 -25 l91 0 54 -55 54 -55 -54 -55 -54 -55 -91 0 c-85 0 -93 -2
-115 -25 -25 -26 -40 -32 -40 -15 0 6 7 10 15 10 11 0 15 12 15 50 0 38 -4 50
-15 50 -11 0 -15 11 -15 40 0 29 4 40 15 40 11 0 15 12 15 50 0 38 -4 50 -15
50 -8 0 -15 5 -15 10 0 17 15 11 40 -15z m-2185 -55 l59 -60 -264 0 -265 0 53
53 52 52 148 6 c81 3 149 6 152 7 3 1 32 -25 65 -58z m3512 50 l135 0 56 -55
57 -55 -265 0 -264 0 59 60 c34 34 65 58 73 55 8 -3 74 -5 149 -5z m-3929 -9
c-1 -5 -23 -30 -47 -56 l-43 -47 -49 48 c-27 27 -49 52 -49 56 0 4 43 8 96 8
53 0 94 -4 92 -9z m4312 2 c0 -4 -21 -29 -47 -55 l-47 -48 -48 47 c-26 26 -48
51 -48 55 0 4 43 8 95 8 52 0 95 -3 95 -7z m-3584 -21 c-11 -19 -125 -82 -147
-82 -21 0 -19 4 21 45 39 40 49 45 88 45 24 0 41 -4 38 -8z m384 -47 l54 -55
-54 -55 -54 -55 -129 0 -129 0 -85 56 c-47 30 -83 58 -80 61 3 3 41 27 84 54
l78 49 130 0 131 0 54 -55z m68 18 c4 -42 -6 -41 -49 3 l-34 35 40 -3 c37 -3
40 -5 43 -35z m82 30 c0 -10 -42 -53 -52 -53 -10 0 -11 44 -1 53 8 9 53 9 53
0z m1658 -25 c4 -34 -4 -35 -35 -6 -30 28 -29 40 5 36 21 -2 28 -9 30 -30z
m67 -9 l-40 -40 -3 26 c-6 43 4 55 45 55 l37 0 -39 -41z m421 -10 c46 -29 84
-53 84 -55 0 -2 -37 -28 -82 -59 l-83 -55 -130 0 -131 0 -54 55 -54 55 54 55
54 55 129 0 130 0 83 -51z m114 6 c38 -39 41 -45 23 -45 -21 0 -138 64 -149
81 -3 5 14 9 38 9 39 0 49 -5 88 -45z m-3097 -136 l-61 -62 -154 2 -153 2 -60
59 -60 60 275 0 275 0 -62 -61z m246 14 l76 -48 -49 -3 c-48 -3 -51 -1 -100
47 -46 46 -48 51 -27 51 13 0 58 -21 100 -47z m2855 -4 c-49 -48 -52 -50 -100
-47 l-49 3 75 47 c41 26 86 48 100 48 23 0 21 -4 -26 -51z m603 -6 l-57 -58
-153 -5 -152 -5 -65 62 -65 63 275 0 275 0 -58 -57z m-4127 -55 c0 -4 -43 -8
-95 -8 -52 0 -95 3 -95 7 0 4 21 29 47 55 l47 48 48 -47 c26 -26 48 -51 48
-55z m830 -18 l195 0 -85 -85 c-47 -47 -89 -85 -94 -85 -5 0 -18 8 -28 17 -18
16 -21 15 -58 -22 l-40 -39 21 -23 22 -22 -29 -35 c-16 -19 -39 -35 -51 -35
-15 -1 -64 44 -167 151 l-147 152 73 73 72 73 61 -60 61 -60 194 0z m2775
-180 c-99 -99 -156 -150 -170 -149 -11 0 -33 16 -49 35 l-29 35 22 22 21 23
-40 39 c-37 37 -40 38 -58 22 -10 -9 -23 -17 -28 -17 -5 0 -47 38 -94 85 l-85
85 196 0 195 0 59 60 60 60 74 -75 75 -74 -149 -151z m705 198 c0 -4 -43 -8
-95 -8 -52 0 -95 3 -95 7 0 4 21 29 47 55 l47 48 48 -47 c26 -26 48 -51 48
-55z m-3134 26 c-3 -9 -20 -14 -43 -14 l-37 0 39 41 40 40 3 -26 c2 -15 1 -33
-2 -41z m1815 20 l34 -35 -40 3 c-37 3 -40 5 -43 36 -4 41 6 40 49 -4z m-1754
4 c30 -28 29 -40 -4 -36 -22 2 -29 9 -31 31 -4 33 4 34 35 5z m1681 -5 c-2
-22 -9 -29 -30 -31 -34 -4 -35 4 -6 35 28 30 40 29 36 -4z m-4328 -38 l24 -26
-27 -27 -27 -27 -27 27 -27 27 24 26 c13 14 26 25 30 25 4 0 17 -11 30 -25z
m7000 0 l24 -26 -27 -27 -27 -27 -27 27 -27 27 24 26 c13 14 26 25 30 25 4 0
17 -11 30 -25z m-4410 -125 l0 -100 -157 0 -158 0 100 100 100 100 57 0 58 0
0 -100z m230 -5 l105 -105 -80 -80 -79 -80 -78 83 -77 82 -1 103 0 102 53 0
52 0 105 -105z m112 68 c33 -32 38 -43 38 -84 0 -82 -16 -79 -120 26 l-95 95
70 0 c66 0 71 -2 107 -37z m1158 -58 c-104 -105 -120 -108 -120 -27 0 40 5 52
37 84 36 37 39 38 107 38 l71 0 -95 -95z m240 -7 l-1 -103 -77 -83 -77 -83
-80 81 -80 80 105 105 105 105 52 0 53 0 0 -102z m235 2 l100 -100 -158 0
-157 0 0 100 0 100 58 0 57 0 100 -100z m-2831 82 c3 -5 -22 -35 -54 -67 l-60
-59 -60 59 c-33 33 -60 63 -60 67 0 11 227 10 234 0z m3706 0 c0 -4 -27 -34
-60 -67 l-60 -59 -60 59 c-32 32 -57 62 -54 67 7 10 234 11 234 0z m-3540
-172 l132 -140 -114 0 -115 0 -76 79 c-42 43 -77 82 -77 87 0 10 101 114 111
114 3 0 66 -63 139 -140z m3337 88 c29 -29 53 -56 53 -61 0 -5 -35 -45 -77
-88 l-76 -79 -115 0 -114 0 132 140 c73 77 135 140 139 140 3 0 29 -23 58 -52z
m-4167 -13 l24 -26 -26 -26 -26 -26 -25 29 -26 29 21 23 c27 28 29 28 58 -3z
m4859 1 l22 -24 -27 -27 -27 -27 -25 26 -26 25 24 26 c29 31 31 31 59 1z
m-2853 -58 c59 -57 71 -74 62 -85 -9 -11 -4 -21 22 -48 l34 -35 -25 0 c-14 0
-30 -5 -37 -12 -9 -9 -18 -6 -41 16 -38 36 -54 15 -17 -23 l26 -27 -43 -42
c-43 -42 -43 -42 -118 -42 -74 0 -75 0 -114 40 l-39 40 79 80 79 80 27 -26
c38 -37 59 -21 23 17 -22 23 -25 32 -16 41 7 7 12 31 12 55 0 24 3 43 6 43 4
0 40 -32 80 -72z m-847 -11 c8 -11 5 -19 -14 -37 -20 -19 -27 -21 -40 -10 -14
12 -13 15 6 37 26 27 32 28 48 10z m2530 -10 c19 -22 20 -25 6 -37 -13 -11
-20 -9 -40 10 -19 18 -22 26 -14 37 16 18 22 17 48 -10z m-3124 -168 l7 -171
-58 -59 -58 -59 -157 0 c-130 0 -159 3 -170 16 -11 13 16 44 202 230 117 118
217 214 220 214 4 0 10 -77 14 -171z m3904 -43 c186 -186 213 -217 202 -230
-11 -13 -40 -16 -170 -16 l-157 0 -58 59 -58 59 7 171 c4 94 10 171 14 171 3
0 103 -96 220 -214z m-3612 49 c138 -7 142 -8 168 -35 l27 -28 5 -261 6 -261
-75 0 -74 0 -138 145 -138 145 -71 0 -71 0 49 50 50 51 -3 162 -4 162 64 -62
63 -61 142 -7z m608 75 l-49 -50 -170 0 -169 0 23 25 c16 17 27 22 35 15 8 -7
22 1 45 25 l34 35 150 0 150 0 -49 -50z m2155 15 c23 -24 37 -32 45 -25 8 7
19 2 35 -15 l23 -25 -169 0 -170 0 -49 50 -49 50 150 0 150 0 34 -35z m589
-126 l-2 -161 49 -49 48 -49 -71 0 -71 0 -138 -145 -137 -145 -75 0 -75 0 6
262 6 261 26 27 c25 26 31 27 168 34 l142 7 60 60 c33 32 61 59 63 59 2 0 2
-72 1 -161z m-2624 101 c21 -22 37 -41 34 -44 -2 -2 -39 -1 -82 2 l-78 5 37
38 c21 22 41 39 44 39 3 0 23 -18 45 -40z m1719 1 l37 -38 -78 -5 c-43 -3 -80
-4 -82 -2 -5 5 70 84 79 84 3 0 23 -17 44 -39z m-1959 -111 c-36 -37 -43 -40
-92 -40 -40 0 -53 -4 -53 -15 0 -10 -10 -15 -27 -15 -34 0 -93 55 -93 87 l0
23 152 0 152 0 -39 -40z m292 18 l23 -22 -32 -33 -32 -33 -138 0 c-76 0 -138
2 -138 4 0 3 24 27 53 55 l52 51 94 0 c84 0 97 -3 118 -22z m623 7 c0 -11 12
-15 50 -15 38 0 50 4 50 15 0 11 11 15 40 15 29 0 40 -4 40 -15 0 -11 12 -15
50 -15 38 0 50 4 50 15 0 12 16 15 83 15 110 0 120 -11 65 -67 l-42 -43 -108
0 c-65 0 -108 -4 -108 -10 0 -6 39 -10 97 -10 l98 0 -113 -112 -112 -113 -112
113 -113 112 98 0 c58 0 97 4 97 10 0 6 -43 10 -108 10 l-108 0 -42 43 c-55
56 -45 67 65 67 67 0 83 -3 83 -15z m1168 -36 c28 -28 52 -52 52 -55 0 -2 -62
-4 -138 -4 l-138 0 -28 29 c-28 29 -28 30 -10 55 18 24 24 25 114 25 l95 1 53
-51z m292 29 c0 -51 -101 -114 -116 -73 -4 11 -21 15 -58 15 -47 0 -55 3 -91
40 l-39 40 152 0 c150 0 152 0 152 -22z m-1643 -50 c34 -31 29 -38 -27 -38
-27 0 -50 3 -50 7 0 8 41 53 49 53 2 0 15 -10 28 -22z m700 0 c34 -31 29 -38
-27 -38 -27 0 -50 3 -50 7 0 8 41 53 49 53 2 0 15 -10 28 -22z m-1081 -12 c21
-21 18 -26 -16 -26 -32 0 -37 9 -18 28 15 15 16 15 34 -2z m1442 2 c19 -19 14
-28 -18 -28 -33 0 -36 4 -17 25 15 18 20 18 35 3z m-1975 -48 c36 0 37 -1 37
-35 l0 -35 60 0 60 0 0 35 0 35 127 0 127 0 -86 -87 -85 -88 -21 -109 c-18
-89 -27 -115 -49 -138 -27 -28 -28 -29 -138 -26 l-110 3 -3 244 -2 245 23 -22
c15 -14 36 -22 60 -22z m2553 -437 c-4 -9 -35 -13 -114 -13 -105 0 -109 1
-134 28 -21 21 -31 51 -49 137 l-23 110 -85 88 -85 87 127 0 127 0 0 -35 0
-35 60 0 60 0 0 35 c0 34 1 35 38 35 27 0 45 7 58 21 19 21 19 18 22 -212 1
-129 0 -239 -2 -246z m-2421 412 c0 -16 -8 -21 -37 -23 -35 -3 -38 -1 -38 23
0 24 3 26 38 23 29 -2 37 -7 37 -23z m615 17 c0 -5 -13 -21 -30 -37 l-30 -29
-28 27 c-37 36 -50 22 -15 -15 l27 -29 -125 -125 -126 -126 -96 -22 c-64 -15
-97 -19 -97 -12 0 6 9 51 20 101 l20 90 92 92 93 93 147 0 c82 0 148 -4 148
-8z m293 -60 c66 -66 68 -70 65 -113 l-3 -44 -119 -2 -118 -1 -42 -41 c-23
-23 -45 -41 -49 -41 -4 0 -7 35 -7 78 0 74 -2 80 -30 107 l-30 29 47 48 47 48
86 0 86 0 67 -68z m679 21 l48 -47 -26 -27 c-22 -23 -27 -39 -31 -109 l-6 -81
-43 42 -42 42 -124 1 -123 1 -3 44 c-3 43 -1 47 65 113 l67 68 85 0 85 0 48
-47z m397 -47 l93 -94 19 -88 c10 -49 18 -94 19 -100 0 -7 -33 -3 -97 12 l-96
22 -126 126 -126 126 28 24 c16 14 26 30 22 36 -5 8 -17 2 -36 -16 l-29 -28
-30 29 c-16 16 -30 32 -30 37 0 4 66 8 148 8 l147 0 94 -94z m301 69 c0 -22
-4 -25 -34 -25 -37 0 -51 12 -42 35 3 9 19 15 41 15 31 0 35 -3 35 -25z
m-3500 -98 c0 -2 -12 -14 -27 -28 l-28 -24 24 28 c23 25 31 32 31 24z m1802
-14 c15 -13 18 -32 18 -117 l0 -100 -47 -48 c-45 -45 -50 -48 -100 -48 l-53 0
0 -60 0 -60 60 0 60 0 0 52 c0 45 4 57 32 85 18 18 36 33 40 33 4 0 8 -30 8
-68 l0 -67 -78 -78 -79 -78 -242 2 -242 2 -97 -96 -97 -97 -75 0 -75 0 205
205 205 205 85 0 85 0 175 175 c96 96 179 175 184 175 5 0 18 -7 28 -17z
m1248 -158 l175 -175 85 0 85 0 205 -205 205 -205 -75 0 -75 0 -97 97 -97 97
-242 -3 -242 -3 -78 78 -79 79 0 67 c0 38 3 68 7 68 4 0 22 -14 40 -32 29 -28
33 -38 33 -85 l0 -53 60 0 60 0 0 60 0 60 -47 0 c-44 0 -52 4 -100 52 l-53 52
0 93 c0 75 3 97 18 112 9 11 22 20 27 20 6 1 89 -78 185 -174z m1620 150 c13
-14 21 -25 18 -25 -2 0 -15 11 -28 25 -13 14 -21 25 -18 25 2 0 15 -11 28 -25z
m-4631 -18 c8 -11 5 -19 -14 -37 -20 -19 -27 -21 -40 -10 -14 12 -13 15 6 37
26 27 32 28 48 10z m4610 -10 c19 -22 20 -25 6 -37 -13 -11 -20 -9 -40 10 -19
18 -22 26 -14 37 16 18 22 17 48 -10z m-2402 -19 c30 -28 29 -40 -4 -36 -22 2
-29 9 -31 31 -4 33 4 34 35 5z m181 -5 c-2 -22 -9 -29 -30 -31 -34 -4 -35 4
-6 35 28 30 40 29 36 -4z m-1794 -80 c45 -49 100 -107 120 -130 l38 -43 -311
0 -311 0 0 22 c0 15 35 58 107 130 l108 108 83 0 83 0 83 -87z m3730 -20 c70
-72 106 -116 106 -130 l0 -23 -311 0 -311 0 42 47 c22 26 76 84 118 129 l77
82 87 1 86 1 106 -107z m-2264 39 c0 -5 -56 -61 -125 -126 l-125 -118 0 73 0
73 52 53 52 53 73 0 c40 0 73 -4 73 -8z m637 -44 l53 -52 0 -74 0 -74 -125
119 c-69 65 -125 121 -125 126 0 4 32 7 72 7 l72 0 53 -52z m-360 -20 l53 -52
0 -206 0 -206 -55 -54 -55 -54 -55 54 -55 54 0 205 0 205 52 53 c29 29 55 53
57 53 3 0 29 -23 58 -52z m-189 2 c3 -33 -6 -44 -168 -205 l-170 -170 0 75 0
75 133 133 c124 125 134 133 167 130 32 -3 35 -6 38 -38z m72 37 c0 -2 -11
-14 -25 -27 l-25 -23 0 26 c0 22 5 27 25 27 14 0 25 -1 25 -3z m170 -22 c0
-14 -1 -25 -3 -25 -2 0 -14 11 -27 25 l-23 25 26 0 c22 0 27 -5 27 -25z m227
-107 l133 -133 0 -75 0 -75 -170 170 c-147 147 -170 174 -170 201 0 38 6 44
44 44 26 0 51 -20 163 -132z m-1227 -3 c-32 -33 -38 -35 -99 -35 -59 0 -64 1
-50 16 14 14 131 51 168 53 9 1 1 -14 -19 -34z m1839 15 c41 -10 81 -26 90
-34 14 -15 9 -16 -50 -16 -61 0 -67 2 -99 35 -39 41 -39 41 59 15z m-3119 -30
c0 -17 -7 -20 -40 -20 -33 0 -40 3 -40 20 0 17 7 20 40 20 33 0 40 -3 40 -20z
m2036 -172 l-7 -193 61 -60 60 -60 -137 -137 c-76 -76 -142 -138 -147 -138 -4
0 -44 35 -87 77 l-79 76 0 152 0 151 163 162 c89 89 166 162 171 162 5 0 6
-81 2 -192z m444 28 l160 -160 0 -150 0 -151 -77 -77 c-43 -43 -82 -78 -88
-78 -6 0 -72 62 -148 138 l-137 137 61 60 61 60 -6 193 c-5 129 -3 193 3 190
6 -1 82 -75 171 -162z m1940 144 c0 -17 -7 -20 -40 -20 -33 0 -40 3 -40 20 0
17 7 20 40 20 33 0 40 -3 40 -20z m-4430 -50 c0 -5 -13 -10 -30 -10 -16 0 -30
5 -30 10 0 6 14 10 30 10 17 0 30 -4 30 -10z m1050 3 c0 -4 -89 -97 -197 -205
l-198 -198 -80 0 -80 0 188 188 c103 103 187 195 187 205 0 15 11 17 90 17 50
0 90 -3 90 -7z m530 -33 l0 -40 -40 0 c-39 0 -40 1 -40 33 0 42 5 47 47 47 32
0 33 -1 33 -40z m1278 -2 l3 -38 -40 0 -41 0 0 41 0 40 38 -3 c35 -3 37 -5 40
-40z m632 25 c0 -10 84 -102 187 -205 l188 -188 -80 0 -80 0 -197 197 c-109
109 -198 201 -198 205 0 5 41 8 90 8 79 0 90 -2 90 -17z m930 7 c0 -5 -13 -10
-30 -10 -16 0 -30 5 -30 10 0 6 14 10 30 10 17 0 30 -4 30 -10z m-2740 -155
l0 -55 -57 0 -57 0 54 55 c30 30 56 55 57 55 2 0 3 -25 3 -55z m1060 0 l54
-55 -57 0 -57 0 0 55 c0 30 1 55 3 55 1 0 27 -25 57 -55z m-1250 -83 c0 -4
-35 -42 -77 -84 l-78 -78 -225 0 -225 0 85 85 85 86 218 -1 c119 -1 217 -4
217 -8z m1900 -77 l85 -85 -225 0 -225 0 -77 77 c-43 43 -78 81 -78 85 0 5 98
8 218 8 l217 0 85 -85z m-3089 -60 c3 -2 3 -20 1 -40 -4 -32 -7 -35 -38 -35
-33 0 -34 1 -34 40 0 39 1 40 33 40 19 0 36 -2 38 -5z m3829 -35 c0 -39 -1
-40 -35 -40 -34 0 -35 1 -35 40 0 39 1 40 35 40 34 0 35 -1 35 -40z m-1805
-190 l140 -140 -143 -143 -142 -142 -142 142 -143 143 140 140 c77 77 142 140
145 140 3 0 68 -63 145 -140z m-1185 -500 c0 -39 -1 -40 -35 -40 -34 0 -35 1
-35 40 0 39 1 40 35 40 34 0 35 -1 35 -40z m2155 0 c0 -33 -2 -35 -37 -38
l-38 -3 0 41 0 41 38 -3 c35 -3 37 -5 37 -38z m-3653 -160 c6 -37 3 -40 -39
-40 -31 0 -33 2 -33 35 0 33 2 35 34 35 30 0 34 -3 38 -30z m5148 -6 c0 -35
-1 -35 -37 -32 -33 3 -37 6 -40 36 -4 31 -3 32 36 32 40 0 41 -1 41 -36z
m-2860 -29 l24 -26 -25 -24 -24 -24 -29 25 -28 25 23 25 c28 30 30 30 59 -1z
m559 1 l22 -24 -27 -27 -27 -27 -25 26 -26 25 24 26 c29 31 31 31 59 1z
m-2649 -166 c0 -39 -1 -40 -35 -40 -33 0 -35 2 -35 33 0 41 5 47 42 47 26 0
28 -3 28 -40z m4748 -3 c3 -36 3 -37 -32 -37 -34 0 -36 2 -36 33 0 41 2 43 37
42 25 -2 28 -6 31 -38z"/>
<path d="M3400 3680 l0 -280 280 0 279 0 3 280 3 280 -282 0 -283 0 0 -280z
m520 0 l0 -240 -240 0 -240 0 0 240 0 240 240 0 240 0 0 -240z"/>
</g>
</svg>
