<svg id="visual" viewBox="0 0 960 540" width="960" height="540" xmlns="http://www.w3.org/2000/svg" xmlns:xlink="http://www.w3.org/1999/xlink" version="1.1"><path d="M0 23L22.8 31C45.7 39 91.3 55 137 68.5C182.7 82 228.3 93 274 86.7C319.7 80.3 365.3 56.7 411.2 50.3C457 44 503 55 548.8 58.7C594.7 62.3 640.3 58.7 686 49.7C731.7 40.7 777.3 26.3 823 23.7C868.7 21 914.3 30 937.2 34.5L960 39L960 0L937.2 0C914.3 0 868.7 0 823 0C777.3 0 731.7 0 686 0C640.3 0 594.7 0 548.8 0C503 0 457 0 411.2 0C365.3 0 319.7 0 274 0C228.3 0 182.7 0 137 0C91.3 0 45.7 0 22.8 0L0 0Z" fill="#4361ee"></path><path d="M0 195L22.8 208.5C45.7 222 91.3 249 137 243.7C182.7 238.3 228.3 200.7 274 171C319.7 141.3 365.3 119.7 411.2 122.3C457 125 503 152 548.8 152C594.7 152 640.3 125 686 102.5C731.7 80 777.3 62 823 59.3C868.7 56.7 914.3 69.3 937.2 75.7L960 82L960 37L937.2 32.5C914.3 28 868.7 19 823 21.7C777.3 24.3 731.7 38.7 686 47.7C640.3 56.7 594.7 60.3 548.8 56.7C503 53 457 42 411.2 48.3C365.3 54.7 319.7 78.3 274 84.7C228.3 91 182.7 80 137 66.5C91.3 53 45.7 37 22.8 29L0 21Z" fill="#5194fc"></path><path d="M0 293L22.8 301C45.7 309 91.3 325 137 317.7C182.7 310.3 228.3 279.7 274 245.5C319.7 211.3 365.3 173.7 411.2 167.5C457 161.3 503 186.7 548.8 199.3C594.7 212 640.3 212 686 201.2C731.7 190.3 777.3 168.7 823 157.8C868.7 147 914.3 147 937.2 147L960 147L960 80L937.2 73.7C914.3 67.3 868.7 54.7 823 57.3C777.3 60 731.7 78 686 100.5C640.3 123 594.7 150 548.8 150C503 150 457 123 411.2 120.3C365.3 117.7 319.7 139.3 274 169C228.3 198.7 182.7 236.3 137 241.7C91.3 247 45.7 220 22.8 206.5L0 193Z" fill="#89c2ff"></path><path d="M0 357L22.8 366C45.7 375 91.3 393 137 399.3C182.7 405.7 228.3 400.3 274 379.7C319.7 359 365.3 323 411.2 317.7C457 312.3 503 337.7 548.8 345.8C594.7 354 640.3 345 686 335C731.7 325 777.3 314 823 321.2C868.7 328.3 914.3 353.7 937.2 366.3L960 379L960 145L937.2 145C914.3 145 868.7 145 823 155.8C777.3 166.7 731.7 188.3 686 199.2C640.3 210 594.7 210 548.8 197.3C503 184.7 457 159.3 411.2 165.5C365.3 171.7 319.7 209.3 274 243.5C228.3 277.7 182.7 308.3 137 315.7C91.3 323 45.7 307 22.8 299L0 291Z" fill="#d3eafd"></path><path d="M0 379L22.8 388C45.7 397 91.3 415 137 424.8C182.7 434.7 228.3 436.3 274 422.8C319.7 409.3 365.3 380.7 411.2 374.5C457 368.3 503 384.7 548.8 393.7C594.7 402.7 640.3 404.3 686 392.5C731.7 380.7 777.3 355.3 823 354.5C868.7 353.7 914.3 377.3 937.2 389.2L960 401L960 377L937.2 364.3C914.3 351.7 868.7 326.3 823 319.2C777.3 312 731.7 323 686 333C640.3 343 594.7 352 548.8 343.8C503 335.7 457 310.3 411.2 315.7C365.3 321 319.7 357 274 377.7C228.3 398.3 182.7 403.7 137 397.3C91.3 391 45.7 373 22.8 364L0 355Z" fill="#e3f2fd"></path><path d="M0 428L22.8 435.2C45.7 442.3 91.3 456.7 137 460.2C182.7 463.7 228.3 456.3 274 445.5C319.7 434.7 365.3 420.3 411.2 418.5C457 416.7 503 427.3 548.8 428.2C594.7 429 640.3 420 686 411C731.7 402 777.3 393 823 400.3C868.7 407.7 914.3 431.3 937.2 443.2L960 455L960 399L937.2 387.2C914.3 375.3 868.7 351.7 823 352.5C777.3 353.3 731.7 378.7 686 390.5C640.3 402.3 594.7 400.7 548.8 391.7C503 382.7 457 366.3 411.2 372.5C365.3 378.7 319.7 407.3 274 420.8C228.3 434.3 182.7 432.7 137 422.8C91.3 413 45.7 395 22.8 386L0 377Z" fill="#d3eafd"></path><path d="M0 476L22.8 476C45.7 476 91.3 476 137 476C182.7 476 228.3 476 274 467C319.7 458 365.3 440 411.2 439.2C457 438.3 503 454.7 548.8 459.2C594.7 463.7 640.3 456.3 686 450C731.7 443.7 777.3 438.3 823 444.7C868.7 451 914.3 469 937.2 478L960 487L960 453L937.2 441.2C914.3 429.3 868.7 405.7 823 398.3C777.3 391 731.7 400 686 409C640.3 418 594.7 427 548.8 426.2C503 425.3 457 414.7 411.2 416.5C365.3 418.3 319.7 432.7 274 443.5C228.3 454.3 182.7 461.7 137 458.2C91.3 454.7 45.7 440.3 22.8 433.2L0 426Z" fill="#89c2ff"></path><path d="M0 487L22.8 490.7C45.7 494.3 91.3 501.7 137 508C182.7 514.3 228.3 519.7 274 514.2C319.7 508.7 365.3 492.3 411.2 487.8C457 483.3 503 490.7 548.8 496.2C594.7 501.7 640.3 505.3 686 503.5C731.7 501.7 777.3 494.3 823 495.2C868.7 496 914.3 505 937.2 509.5L960 514L960 485L937.2 476C914.3 467 868.7 449 823 442.7C777.3 436.3 731.7 441.7 686 448C640.3 454.3 594.7 461.7 548.8 457.2C503 452.7 457 436.3 411.2 437.2C365.3 438 319.7 456 274 465C228.3 474 182.7 474 137 474C91.3 474 45.7 474 22.8 474L0 474Z" fill="#5194fc"></path><path d="M0 541L22.8 541C45.7 541 91.3 541 137 541C182.7 541 228.3 541 274 541C319.7 541 365.3 541 411.2 541C457 541 503 541 548.8 541C594.7 541 640.3 541 686 541C731.7 541 777.3 541 823 541C868.7 541 914.3 541 937.2 541L960 541L960 512L937.2 507.5C914.3 503 868.7 494 823 493.2C777.3 492.3 731.7 499.7 686 501.5C640.3 503.3 594.7 499.7 548.8 494.2C503 488.7 457 481.3 411.2 485.8C365.3 490.3 319.7 506.7 274 512.2C228.3 517.7 182.7 512.3 137 506C91.3 499.7 45.7 492.3 22.8 488.7L0 485Z" fill="#4361ee"></path></svg>