<svg id="visual" viewBox="0 0 960 540" width="960" height="540" xmlns="http://www.w3.org/2000/svg" xmlns:xlink="http://www.w3.org/1999/xlink" version="1.1"><rect x="0" y="0" width="960" height="540" fill="#caf0f8"></rect><path d="M0 392L22.8 392.2C45.7 392.3 91.3 392.7 137 382.2C182.7 371.7 228.3 350.3 274 340.8C319.7 331.3 365.3 333.7 411.2 344.5C457 355.3 503 374.7 548.8 378.2C594.7 381.7 640.3 369.3 686 364.5C731.7 359.7 777.3 362.3 823 361.5C868.7 360.7 914.3 356.3 937.2 354.2L960 352L960 541L937.2 541C914.3 541 868.7 541 823 541C777.3 541 731.7 541 686 541C640.3 541 594.7 541 548.8 541C503 541 457 541 411.2 541C365.3 541 319.7 541 274 541C228.3 541 182.7 541 137 541C91.3 541 45.7 541 22.8 541L0 541Z" fill="#4ea8de"></path><path d="M0 378L22.8 380.2C45.7 382.3 91.3 386.7 137 387.3C182.7 388 228.3 385 274 381.5C319.7 378 365.3 374 411.2 374.7C457 375.3 503 380.7 548.8 379C594.7 377.3 640.3 368.7 686 368.8C731.7 369 777.3 378 823 389.5C868.7 401 914.3 415 937.2 422L960 429L960 541L937.2 541C914.3 541 868.7 541 823 541C777.3 541 731.7 541 686 541C640.3 541 594.7 541 548.8 541C503 541 457 541 411.2 541C365.3 541 319.7 541 274 541C228.3 541 182.7 541 137 541C91.3 541 45.7 541 22.8 541L0 541Z" fill="#1d92e2"></path><path d="M0 448L22.8 439.2C45.7 430.3 91.3 412.7 137 411.7C182.7 410.7 228.3 426.3 274 433.7C319.7 441 365.3 440 411.2 438.5C457 437 503 435 548.8 438C594.7 441 640.3 449 686 449.5C731.7 450 777.3 443 823 436.2C868.7 429.3 914.3 422.7 937.2 419.3L960 416L960 541L937.2 541C914.3 541 868.7 541 823 541C777.3 541 731.7 541 686 541C640.3 541 594.7 541 548.8 541C503 541 457 541 411.2 541C365.3 541 319.7 541 274 541C228.3 541 182.7 541 137 541C91.3 541 45.7 541 22.8 541L0 541Z" fill="#1379e1"></path><path d="M0 459L22.8 463C45.7 467 91.3 475 137 473C182.7 471 228.3 459 274 451C319.7 443 365.3 439 411.2 439C457 439 503 443 548.8 444.5C594.7 446 640.3 445 686 448.2C731.7 451.3 777.3 458.7 823 457.5C868.7 456.3 914.3 446.7 937.2 441.8L960 437L960 541L937.2 541C914.3 541 868.7 541 823 541C777.3 541 731.7 541 686 541C640.3 541 594.7 541 548.8 541C503 541 457 541 411.2 541C365.3 541 319.7 541 274 541C228.3 541 182.7 541 137 541C91.3 541 45.7 541 22.8 541L0 541Z" fill="#415bd8"></path><path d="M0 474L22.8 478.2C45.7 482.3 91.3 490.7 137 495.5C182.7 500.3 228.3 501.7 274 503.5C319.7 505.3 365.3 507.7 411.2 507.3C457 507 503 504 548.8 501.8C594.7 499.7 640.3 498.3 686 494.7C731.7 491 777.3 485 823 484.2C868.7 483.3 914.3 487.7 937.2 489.8L960 492L960 541L937.2 541C914.3 541 868.7 541 823 541C777.3 541 731.7 541 686 541C640.3 541 594.7 541 548.8 541C503 541 457 541 411.2 541C365.3 541 319.7 541 274 541C228.3 541 182.7 541 137 541C91.3 541 45.7 541 22.8 541L0 541Z" fill="#6930c3"></path></svg>