<svg id="visual" viewBox="0 0 450 900" width="450" height="900" xmlns="http://www.w3.org/2000/svg" xmlns:xlink="http://www.w3.org/1999/xlink" version="1.1"><rect x="0" y="0" width="450" height="900" fill="#ffffff"></rect><defs><linearGradient id="grad1_0" x1="0%" y1="100%" x2="100%" y2="0%"><stop offset="30%" stop-color="#256eda" stop-opacity="1"></stop><stop offset="70%" stop-color="#256eda" stop-opacity="1"></stop></linearGradient></defs><defs><linearGradient id="grad1_1" x1="0%" y1="100%" x2="100%" y2="0%"><stop offset="30%" stop-color="#256eda" stop-opacity="1"></stop><stop offset="70%" stop-color="#859be7" stop-opacity="1"></stop></linearGradient></defs><defs><linearGradient id="grad1_2" x1="0%" y1="100%" x2="100%" y2="0%"><stop offset="30%" stop-color="#c5ccf4" stop-opacity="1"></stop><stop offset="70%" stop-color="#859be7" stop-opacity="1"></stop></linearGradient></defs><defs><linearGradient id="grad1_3" x1="0%" y1="100%" x2="100%" y2="0%"><stop offset="30%" stop-color="#c5ccf4" stop-opacity="1"></stop><stop offset="70%" stop-color="#ffffff" stop-opacity="1"></stop></linearGradient></defs><defs><linearGradient id="grad2_0" x1="0%" y1="100%" x2="100%" y2="0%"><stop offset="30%" stop-color="#256eda" stop-opacity="1"></stop><stop offset="70%" stop-color="#256eda" stop-opacity="1"></stop></linearGradient></defs><defs><linearGradient id="grad2_1" x1="0%" y1="100%" x2="100%" y2="0%"><stop offset="30%" stop-color="#859be7" stop-opacity="1"></stop><stop offset="70%" stop-color="#256eda" stop-opacity="1"></stop></linearGradient></defs><defs><linearGradient id="grad2_2" x1="0%" y1="100%" x2="100%" y2="0%"><stop offset="30%" stop-color="#859be7" stop-opacity="1"></stop><stop offset="70%" stop-color="#c5ccf4" stop-opacity="1"></stop></linearGradient></defs><defs><linearGradient id="grad2_3" x1="0%" y1="100%" x2="100%" y2="0%"><stop offset="30%" stop-color="#ffffff" stop-opacity="1"></stop><stop offset="70%" stop-color="#c5ccf4" stop-opacity="1"></stop></linearGradient></defs><g transform="translate(450, 900)"><path d="M-382.5 0C-355.8 -41.8 -329.1 -83.5 -313.2 -129.7C-297.3 -175.9 -292.3 -226.6 -266.6 -266.6C-240.8 -306.6 -194.3 -335.8 -146.4 -353.4C-98.5 -370.9 -49.2 -376.7 0 -382.5L0 0Z" fill="#e2e5fa"></path><path d="M-286.9 0C-266.8 -31.3 -246.8 -62.6 -234.9 -97.3C-223 -132 -219.3 -170 -199.9 -199.9C-180.6 -229.9 -145.7 -251.9 -109.8 -265C-73.9 -278.2 -36.9 -282.5 0 -286.9L0 0Z" fill="#a6b3ee"></path><path d="M-191.2 0C-177.9 -20.9 -164.5 -41.8 -156.6 -64.9C-148.7 -88 -146.2 -113.3 -133.3 -133.3C-120.4 -153.3 -97.1 -167.9 -73.2 -176.7C-49.2 -185.5 -24.6 -188.4 0 -191.2L0 0Z" fill="#5f84e1"></path><path d="M-95.6 0C-88.9 -10.4 -82.3 -20.9 -78.3 -32.4C-74.3 -44 -73.1 -56.7 -66.6 -66.6C-60.2 -76.6 -48.6 -84 -36.6 -88.3C-24.6 -92.7 -12.3 -94.2 0 -95.6L0 0Z" fill="#256eda"></path></g><g transform="translate(0, 0)"><path d="M382.5 0C367.2 45.5 352 90.9 336.3 139.3C320.6 187.7 304.5 239 270.5 270.5C236.4 301.9 184.3 313.5 136.2 328.9C88.2 344.3 44.1 363.4 0 382.5L0 0Z" fill="#e2e5fa"></path><path d="M286.9 0C275.4 34.1 264 68.2 252.2 104.5C240.5 140.8 228.4 179.3 202.9 202.9C177.3 226.4 138.2 235.2 102.2 246.7C66.1 258.2 33.1 272.5 0 286.9L0 0Z" fill="#a6b3ee"></path><path d="M191.3 0C183.6 22.7 176 45.5 168.1 69.6C160.3 93.8 152.3 119.5 135.2 135.2C118.2 151 92.2 156.8 68.1 164.5C44.1 172.1 22 181.7 0 191.3L0 0Z" fill="#5f84e1"></path><path d="M95.6 0C91.8 11.4 88 22.7 84.1 34.8C80.2 46.9 76.1 59.8 67.6 67.6C59.1 75.5 46.1 78.4 34.1 82.2C22 86.1 11 90.8 0 95.6L0 0Z" fill="#256eda"></path></g></svg>