<svg id="visual" viewBox="0 0 960 540" width="960" height="540" xmlns="http://www.w3.org/2000/svg" xmlns:xlink="http://www.w3.org/1999/xlink" version="1.1"><g stroke-width="1" stroke-linejoin="bevel"><path d="M410 279L482 407L520 192Z" fill="#e3f2fd" stroke="#e3f2fd"></path><path d="M482 407L615 414L520 192Z" fill="#e3f2fd" stroke="#e3f2fd"></path><path d="M482 407L487 540L615 414Z" fill="#ddeffd" stroke="#ddeffd"></path><path d="M381 540L487 540L482 407Z" fill="#e3f2fd" stroke="#e3f2fd"></path><path d="M174 201L265 385L410 279Z" fill="#bbd0ff" stroke="#bbd0ff"></path><path d="M410 279L265 385L482 407Z" fill="#ddeffd" stroke="#ddeffd"></path><path d="M265 385L381 540L482 407Z" fill="#e3f2fd" stroke="#e3f2fd"></path><path d="M487 540L692 540L615 414Z" fill="#ddeffd" stroke="#ddeffd"></path><path d="M862 173L654 0L520 192Z" fill="#bbd0ff" stroke="#bbd0ff"></path><path d="M520 192L412 0L410 279Z" fill="#bbd0ff" stroke="#bbd0ff"></path><path d="M849 325L520 192L615 414Z" fill="#ddeffd" stroke="#ddeffd"></path><path d="M520 192L654 0L412 0Z" fill="#bdd4ff" stroke="#bdd4ff"></path><path d="M692 540L849 325L615 414Z" fill="#c8e0fe" stroke="#c8e0fe"></path><path d="M265 385L262 540L381 540Z" fill="#c8e0fe" stroke="#c8e0fe"></path><path d="M412 0L174 201L410 279Z" fill="#d1e8fe" stroke="#d1e8fe"></path><path d="M265 385L0 403L262 540Z" fill="#d1e8fe" stroke="#d1e8fe"></path><path d="M849 325L862 173L520 192Z" fill="#c0d8ff" stroke="#c0d8ff"></path><path d="M862 173L771 0L654 0Z" fill="#d1e8fe" stroke="#d1e8fe"></path><path d="M412 0L192 0L174 201Z" fill="#bdd4ff" stroke="#bdd4ff"></path><path d="M849 325L960 245L862 173Z" fill="#d7ebfd" stroke="#d7ebfd"></path><path d="M862 173L960 0L771 0Z" fill="#c0d8ff" stroke="#c0d8ff"></path><path d="M960 540L960 355L849 325Z" fill="#bbd0ff" stroke="#bbd0ff"></path><path d="M960 355L960 245L849 325Z" fill="#bdd4ff" stroke="#bdd4ff"></path><path d="M692 540L960 540L849 325Z" fill="#ddeffd" stroke="#ddeffd"></path><path d="M0 0L0 267L174 201Z" fill="#ddeffd" stroke="#ddeffd"></path><path d="M174 201L0 403L265 385Z" fill="#c8e0fe" stroke="#c8e0fe"></path><path d="M0 267L0 403L174 201Z" fill="#bbd0ff" stroke="#bbd0ff"></path><path d="M960 245L960 0L862 173Z" fill="#ddeffd" stroke="#ddeffd"></path><path d="M0 403L0 540L262 540Z" fill="#ddeffd" stroke="#ddeffd"></path><path d="M192 0L0 0L174 201Z" fill="#ddeffd" stroke="#ddeffd"></path></g></svg>