<svg id="visual" viewBox="0 0 960 540" width="960" height="540" xmlns="http://www.w3.org/2000/svg" xmlns:xlink="http://www.w3.org/1999/xlink" version="1.1"><rect x="0" y="0" width="960" height="540" fill="#ffffff"></rect><defs><linearGradient id="grad1_0" x1="43.8%" y1="100%" x2="100%" y2="0%"><stop offset="14.444444444444446%" stop-color="#256eda" stop-opacity="1"></stop><stop offset="85.55555555555554%" stop-color="#256eda" stop-opacity="1"></stop></linearGradient></defs><defs><linearGradient id="grad1_1" x1="43.8%" y1="100%" x2="100%" y2="0%"><stop offset="14.444444444444446%" stop-color="#256eda" stop-opacity="1"></stop><stop offset="85.55555555555554%" stop-color="#859be7" stop-opacity="1"></stop></linearGradient></defs><defs><linearGradient id="grad1_2" x1="43.8%" y1="100%" x2="100%" y2="0%"><stop offset="14.444444444444446%" stop-color="#c5ccf4" stop-opacity="1"></stop><stop offset="85.55555555555554%" stop-color="#859be7" stop-opacity="1"></stop></linearGradient></defs><defs><linearGradient id="grad1_3" x1="43.8%" y1="100%" x2="100%" y2="0%"><stop offset="14.444444444444446%" stop-color="#c5ccf4" stop-opacity="1"></stop><stop offset="85.55555555555554%" stop-color="#ffffff" stop-opacity="1"></stop></linearGradient></defs><defs><linearGradient id="grad2_0" x1="0%" y1="100%" x2="56.3%" y2="0%"><stop offset="14.444444444444446%" stop-color="#256eda" stop-opacity="1"></stop><stop offset="85.55555555555554%" stop-color="#256eda" stop-opacity="1"></stop></linearGradient></defs><defs><linearGradient id="grad2_1" x1="0%" y1="100%" x2="56.3%" y2="0%"><stop offset="14.444444444444446%" stop-color="#859be7" stop-opacity="1"></stop><stop offset="85.55555555555554%" stop-color="#256eda" stop-opacity="1"></stop></linearGradient></defs><defs><linearGradient id="grad2_2" x1="0%" y1="100%" x2="56.3%" y2="0%"><stop offset="14.444444444444446%" stop-color="#859be7" stop-opacity="1"></stop><stop offset="85.55555555555554%" stop-color="#c5ccf4" stop-opacity="1"></stop></linearGradient></defs><defs><linearGradient id="grad2_3" x1="0%" y1="100%" x2="56.3%" y2="0%"><stop offset="14.444444444444446%" stop-color="#ffffff" stop-opacity="1"></stop><stop offset="85.55555555555554%" stop-color="#c5ccf4" stop-opacity="1"></stop></linearGradient></defs><g transform="translate(960, 540)"><path d="M-378 0C-375.3 -32.7 -372.6 -65.4 -365.1 -97.8C-357.7 -130.2 -345.5 -162.3 -326.5 -188.5C-307.5 -214.7 -281.6 -235 -258.1 -258.1C-234.6 -281.2 -213.5 -307.1 -186.5 -323C-159.5 -339 -126.5 -345.1 -94.5 -352.6C-62.4 -360.1 -31.2 -369 0 -378L0 0Z" fill="#e2e5fa"></path><path d="M-283.5 0C-281.5 -24.5 -279.4 -49.1 -273.8 -73.4C-268.3 -97.7 -259.1 -121.7 -244.9 -141.4C-230.6 -161 -211.2 -176.3 -193.6 -193.6C-176 -210.9 -160.1 -230.3 -139.9 -242.3C-119.6 -254.2 -94.9 -258.8 -70.9 -264.4C-46.8 -270.1 -23.4 -276.8 0 -283.5L0 0Z" fill="#a6b3ee"></path><path d="M-189 0C-187.6 -16.4 -186.3 -32.7 -182.6 -48.9C-178.8 -65.1 -172.8 -81.2 -163.2 -94.3C-153.7 -107.3 -140.8 -117.5 -129 -129C-117.3 -140.6 -106.8 -153.5 -93.3 -161.5C-79.7 -169.5 -63.3 -172.5 -47.2 -176.3C-31.2 -180 -15.6 -184.5 0 -189L0 0Z" fill="#5f84e1"></path><path d="M-94.5 0C-93.8 -8.2 -93.1 -16.4 -91.3 -24.5C-89.4 -32.6 -86.4 -40.6 -81.6 -47.1C-76.9 -53.7 -70.4 -58.8 -64.5 -64.5C-58.7 -70.3 -53.4 -76.8 -46.6 -80.8C-39.9 -84.7 -31.6 -86.3 -23.6 -88.1C-15.6 -90 -7.8 -92.3 0 -94.5L0 0Z" fill="#256eda"></path></g><g transform="translate(0, 0)"><path d="M378 0C374 33.1 369.9 66.2 357.4 95.8C344.8 125.4 323.8 151.5 304.8 176C285.9 200.5 269.1 223.5 251.7 251.7C234.4 279.9 216.5 313.4 189 327.4C161.5 341.3 124.5 335.8 91.4 341C58.3 346.2 29.1 362.1 0 378L0 0Z" fill="#e2e5fa"></path><path d="M283.5 0C280.5 24.8 277.5 49.6 268 71.8C258.6 94 242.8 113.6 228.6 132C214.4 150.4 201.8 167.6 188.8 188.8C175.8 210 162.4 235 141.8 245.5C121.1 256 93.3 251.8 68.5 255.7C43.7 259.6 21.8 271.6 0 283.5L0 0Z" fill="#a6b3ee"></path><path d="M189 0C187 16.5 185 33.1 178.7 47.9C172.4 62.7 161.9 75.7 152.4 88C143 100.3 134.5 111.8 125.9 125.9C117.2 140 108.2 156.7 94.5 163.7C80.8 170.7 62.2 167.9 45.7 170.5C29.1 173.1 14.6 181 0 189L0 0Z" fill="#5f84e1"></path><path d="M94.5 0C93.5 8.3 92.5 16.5 89.3 23.9C86.2 31.3 80.9 37.9 76.2 44C71.5 50.1 67.3 55.9 62.9 62.9C58.6 70 54.1 78.3 47.3 81.8C40.4 85.3 31.1 83.9 22.8 85.2C14.6 86.5 7.3 90.5 0 94.5L0 0Z" fill="#256eda"></path></g></svg>