<svg id="visual" viewBox="0 0 450 900" width="450" height="900" xmlns="http://www.w3.org/2000/svg" xmlns:xlink="http://www.w3.org/1999/xlink" version="1.1"><g stroke-width="1" stroke-linejoin="bevel"><path d="M255 468L205 558L273 548Z" fill="#cbe6fd" stroke="#cbe6fd"></path><path d="M205 558L269 630L273 548Z" fill="#97cbff" stroke="#97cbff"></path><path d="M269 630L331 554L273 548Z" fill="#9ecffe" stroke="#9ecffe"></path><path d="M273 548L331 554L255 468Z" fill="#add7fe" stroke="#add7fe"></path><path d="M255 468L158 431L205 558Z" fill="#89c2ff" stroke="#89c2ff"></path><path d="M205 558L68 568L195 608Z" fill="#89c2ff" stroke="#89c2ff"></path><path d="M195 608L269 630L205 558Z" fill="#9ecffe" stroke="#9ecffe"></path><path d="M255 468L195 384L158 431Z" fill="#9ecffe" stroke="#9ecffe"></path><path d="M285 373L195 384L255 468Z" fill="#c4e3fd" stroke="#c4e3fd"></path><path d="M385 460L285 373L255 468Z" fill="#c4e3fd" stroke="#c4e3fd"></path><path d="M331 554L385 460L255 468Z" fill="#add7fe" stroke="#add7fe"></path><path d="M84 346L87 423L158 431Z" fill="#bcdffe" stroke="#bcdffe"></path><path d="M158 431L68 568L205 558Z" fill="#89c2ff" stroke="#89c2ff"></path><path d="M87 423L68 568L158 431Z" fill="#b4dbfe" stroke="#b4dbfe"></path><path d="M68 568L104 639L195 608Z" fill="#9ecffe" stroke="#9ecffe"></path><path d="M195 608L182 730L269 630Z" fill="#c4e3fd" stroke="#c4e3fd"></path><path d="M385 460L371 377L285 373Z" fill="#add7fe" stroke="#add7fe"></path><path d="M269 630L376 651L331 554Z" fill="#cbe6fd" stroke="#cbe6fd"></path><path d="M331 554L450 548L385 460Z" fill="#c4e3fd" stroke="#c4e3fd"></path><path d="M357 743L376 651L269 630Z" fill="#cbe6fd" stroke="#cbe6fd"></path><path d="M450 614L450 548L331 554Z" fill="#97cbff" stroke="#97cbff"></path><path d="M385 460L450 433L371 377Z" fill="#add7fe" stroke="#add7fe"></path><path d="M104 639L182 730L195 608Z" fill="#bcdffe" stroke="#bcdffe"></path><path d="M285 373L205 294L195 384Z" fill="#bcdffe" stroke="#bcdffe"></path><path d="M195 384L84 346L158 431Z" fill="#9ecffe" stroke="#9ecffe"></path><path d="M245 265L205 294L285 373Z" fill="#c4e3fd" stroke="#c4e3fd"></path><path d="M205 294L84 346L195 384Z" fill="#90c6ff" stroke="#90c6ff"></path><path d="M87 423L0 537L68 568Z" fill="#d3eafd" stroke="#d3eafd"></path><path d="M182 730L264 740L269 630Z" fill="#c4e3fd" stroke="#c4e3fd"></path><path d="M450 548L450 433L385 460Z" fill="#add7fe" stroke="#add7fe"></path><path d="M0 421L0 537L87 423Z" fill="#b4dbfe" stroke="#b4dbfe"></path><path d="M68 568L0 632L104 639Z" fill="#90c6ff" stroke="#90c6ff"></path><path d="M104 639L83 735L182 730Z" fill="#a6d3fe" stroke="#a6d3fe"></path><path d="M450 721L450 614L376 651Z" fill="#d3eafd" stroke="#d3eafd"></path><path d="M376 651L450 614L331 554Z" fill="#add7fe" stroke="#add7fe"></path><path d="M376 260L285 373L371 377Z" fill="#cbe6fd" stroke="#cbe6fd"></path><path d="M376 260L245 265L285 373Z" fill="#97cbff" stroke="#97cbff"></path><path d="M0 286L0 335L84 346Z" fill="#add7fe" stroke="#add7fe"></path><path d="M84 346L0 421L87 423Z" fill="#bcdffe" stroke="#bcdffe"></path><path d="M264 740L357 743L269 630Z" fill="#cbe6fd" stroke="#cbe6fd"></path><path d="M0 537L0 632L68 568Z" fill="#add7fe" stroke="#add7fe"></path><path d="M0 720L83 735L104 639Z" fill="#9ecffe" stroke="#9ecffe"></path><path d="M182 730L192 803L264 740Z" fill="#97cbff" stroke="#97cbff"></path><path d="M264 740L333 794L357 743Z" fill="#bcdffe" stroke="#bcdffe"></path><path d="M450 433L450 345L371 377Z" fill="#a6d3fe" stroke="#a6d3fe"></path><path d="M102 799L192 803L182 730Z" fill="#9ecffe" stroke="#9ecffe"></path><path d="M450 345L376 260L371 377Z" fill="#97cbff" stroke="#97cbff"></path><path d="M192 803L257 808L264 740Z" fill="#c4e3fd" stroke="#c4e3fd"></path><path d="M84 346L0 335L0 421Z" fill="#cbe6fd" stroke="#cbe6fd"></path><path d="M82 255L84 346L205 294Z" fill="#bcdffe" stroke="#bcdffe"></path><path d="M257 808L333 794L264 740Z" fill="#9ecffe" stroke="#9ecffe"></path><path d="M357 743L450 721L376 651Z" fill="#a6d3fe" stroke="#a6d3fe"></path><path d="M450 819L450 721L357 743Z" fill="#c4e3fd" stroke="#c4e3fd"></path><path d="M197 203L205 294L245 265Z" fill="#add7fe" stroke="#add7fe"></path><path d="M197 203L82 255L205 294Z" fill="#add7fe" stroke="#add7fe"></path><path d="M83 735L102 799L182 730Z" fill="#bcdffe" stroke="#bcdffe"></path><path d="M0 632L0 720L104 639Z" fill="#90c6ff" stroke="#90c6ff"></path><path d="M0 800L102 799L83 735Z" fill="#c4e3fd" stroke="#c4e3fd"></path><path d="M203 900L247 900L257 808Z" fill="#9ecffe" stroke="#9ecffe"></path><path d="M286 159L197 203L245 265Z" fill="#cbe6fd" stroke="#cbe6fd"></path><path d="M0 176L0 286L82 255Z" fill="#c4e3fd" stroke="#c4e3fd"></path><path d="M82 255L0 286L84 346Z" fill="#d3eafd" stroke="#d3eafd"></path><path d="M450 345L450 257L376 260Z" fill="#add7fe" stroke="#add7fe"></path><path d="M376 260L370 206L245 265Z" fill="#97cbff" stroke="#97cbff"></path><path d="M450 257L370 206L376 260Z" fill="#90c6ff" stroke="#90c6ff"></path><path d="M370 206L286 159L245 265Z" fill="#add7fe" stroke="#add7fe"></path><path d="M197 203L86 159L82 255Z" fill="#90c6ff" stroke="#90c6ff"></path><path d="M0 720L0 800L83 735Z" fill="#cbe6fd" stroke="#cbe6fd"></path><path d="M203 900L257 808L192 803Z" fill="#c4e3fd" stroke="#c4e3fd"></path><path d="M333 794L450 819L357 743Z" fill="#d3eafd" stroke="#d3eafd"></path><path d="M354 900L450 819L333 794Z" fill="#b4dbfe" stroke="#b4dbfe"></path><path d="M354 900L333 794L257 808Z" fill="#bcdffe" stroke="#bcdffe"></path><path d="M186 83L86 159L197 203Z" fill="#add7fe" stroke="#add7fe"></path><path d="M203 900L192 803L101 900Z" fill="#bcdffe" stroke="#bcdffe"></path><path d="M101 900L192 803L102 799Z" fill="#a6d3fe" stroke="#a6d3fe"></path><path d="M247 900L354 900L257 808Z" fill="#97cbff" stroke="#97cbff"></path><path d="M0 800L101 900L102 799Z" fill="#90c6ff" stroke="#90c6ff"></path><path d="M86 159L0 176L82 255Z" fill="#89c2ff" stroke="#89c2ff"></path><path d="M450 257L450 164L370 206Z" fill="#97cbff" stroke="#97cbff"></path><path d="M345 86L273 100L286 159Z" fill="#a6d3fe" stroke="#a6d3fe"></path><path d="M345 86L286 159L370 206Z" fill="#c4e3fd" stroke="#c4e3fd"></path><path d="M286 159L273 100L197 203Z" fill="#bcdffe" stroke="#bcdffe"></path><path d="M86 159L0 96L0 176Z" fill="#cbe6fd" stroke="#cbe6fd"></path><path d="M273 100L186 83L197 203Z" fill="#9ecffe" stroke="#9ecffe"></path><path d="M354 900L450 900L450 819Z" fill="#cbe6fd" stroke="#cbe6fd"></path><path d="M450 164L345 86L370 206Z" fill="#90c6ff" stroke="#90c6ff"></path><path d="M273 100L262 0L186 83Z" fill="#97cbff" stroke="#97cbff"></path><path d="M0 800L0 900L101 900Z" fill="#a6d3fe" stroke="#a6d3fe"></path><path d="M168 0L112 61L186 83Z" fill="#97cbff" stroke="#97cbff"></path><path d="M186 83L112 61L86 159Z" fill="#add7fe" stroke="#add7fe"></path><path d="M112 61L0 96L86 159Z" fill="#b4dbfe" stroke="#b4dbfe"></path><path d="M450 164L450 81L345 86Z" fill="#cbe6fd" stroke="#cbe6fd"></path><path d="M335 0L262 0L273 100Z" fill="#d3eafd" stroke="#d3eafd"></path><path d="M335 0L273 100L345 86Z" fill="#90c6ff" stroke="#90c6ff"></path><path d="M112 61L0 0L0 96Z" fill="#cbe6fd" stroke="#cbe6fd"></path><path d="M262 0L168 0L186 83Z" fill="#add7fe" stroke="#add7fe"></path><path d="M450 0L335 0L345 86Z" fill="#c4e3fd" stroke="#c4e3fd"></path><path d="M168 0L110 0L112 61Z" fill="#90c6ff" stroke="#90c6ff"></path><path d="M450 81L450 0L345 86Z" fill="#add7fe" stroke="#add7fe"></path><path d="M110 0L0 0L112 61Z" fill="#9ecffe" stroke="#9ecffe"></path></g></svg>