<?xml version="1.0" encoding="utf-8"?>
<svg xmlns="http://www.w3.org/2000/svg">
  <defs>
    <!-- social media icons -->
    <!-- discord -->
    <symbol id="discordIcon" viewBox="0 0 24 24">
    <path d="M18.59 5.88997C17.36 5.31997 16.05 4.89997 14.67 4.65997C14.5 4.95997 14.3 5.36997 14.17 5.69997C12.71 5.47997 11.26 5.47997 9.83001 5.69997C9.69001 5.36997 9.49001 4.95997 9.32001 4.65997C7.94001 4.89997 6.63001 5.31997 5.40001 5.88997C2.92001 9.62997 2.25001 13.28 2.58001 16.87C4.23001 18.1 5.82001 18.84 7.39001 19.33C7.78001 18.8 8.12001 18.23 8.42001 17.64C7.85001 17.43 7.31001 17.16 6.80001 16.85C6.94001 16.75 7.07001 16.64 7.20001 16.54C10.33 18 13.72 18 16.81 16.54C16.94 16.65 17.07 16.75 17.21 16.85C16.7 17.16 16.15 17.42 15.59 17.64C15.89 18.23 16.23 18.8 16.62 19.33C18.19 18.84 19.79 18.1 21.43 16.87C21.82 12.7 20.76 9.08997 18.61 5.88997H18.59ZM8.84001 14.67C7.90001 14.67 7.13001 13.8 7.13001 12.73C7.13001 11.66 7.88001 10.79 8.84001 10.79C9.80001 10.79 10.56 11.66 10.55 12.73C10.55 13.79 9.80001 14.67 8.84001 14.67ZM15.15 14.67C14.21 14.67 13.44 13.8 13.44 12.73C13.44 11.66 14.19 10.79 15.15 10.79C16.11 10.79 16.87 11.66 16.86 12.73C16.86 13.79 16.11 14.67 15.15 14.67Z" 
    fill="var(--iconColor)"/>
    </symbol>

    <!-- instagram -->
    <symbol id="instagramIcon" viewBox="0 0 24 24">
    <path fill-rule="evenodd" clip-rule="evenodd" d="M12 18C15.3137 18 18 15.3137 18 12C18 8.68629 15.3137 6 12 6C8.68629 6 6 8.68629 6 12C6 15.3137 8.68629 18 12 18ZM12 16C14.2091 16 16 14.2091 16 12C16 9.79086 14.2091 8 12 8C9.79086 8 8 9.79086 8 12C8 14.2091 9.79086 16 12 16Z" fill="var(--iconColor)"/>
    <path d="M18 5C17.4477 5 17 5.44772 17 6C17 6.55228 17.4477 7 18 7C18.5523 7 19 6.55228 19 6C19 5.44772 18.5523 5 18 5Z" fill="var(--iconColor)"/>
    <path fill-rule="evenodd" clip-rule="evenodd" d="M1.65396 4.27606C1 5.55953 1 7.23969 1 10.6V13.4C1 16.7603 1 18.4405 1.65396 19.7239C2.2292 20.8529 3.14708 21.7708 4.27606 22.346C5.55953 23 7.23969 23 10.6 23H13.4C16.7603 23 18.4405 23 19.7239 22.346C20.8529 21.7708 21.7708 20.8529 22.346 19.7239C23 18.4405 23 16.7603 23 13.4V10.6C23 7.23969 23 5.55953 22.346 4.27606C21.7708 3.14708 20.8529 2.2292 19.7239 1.65396C18.4405 1 16.7603 1 13.4 1H10.6C7.23969 1 5.55953 1 4.27606 1.65396C3.14708 2.2292 2.2292 3.14708 1.65396 4.27606ZM13.4 3H10.6C8.88684 3 7.72225 3.00156 6.82208 3.0751C5.94524 3.14674 5.49684 3.27659 5.18404 3.43597C4.43139 3.81947 3.81947 4.43139 3.43597 5.18404C3.27659 5.49684 3.14674 5.94524 3.0751 6.82208C3.00156 7.72225 3 8.88684 3 10.6V13.4C3 15.1132 3.00156 16.2777 3.0751 17.1779C3.14674 18.0548 3.27659 18.5032 3.43597 18.816C3.81947 19.5686 4.43139 20.1805 5.18404 20.564C5.49684 20.7234 5.94524 20.8533 6.82208 20.9249C7.72225 20.9984 8.88684 21 10.6 21H13.4C15.1132 21 16.2777 20.9984 17.1779 20.9249C18.0548 20.8533 18.5032 20.7234 18.816 20.564C19.5686 20.1805 20.1805 19.5686 20.564 18.816C20.7234 18.5032 20.8533 18.0548 20.9249 17.1779C20.9984 16.2777 21 15.1132 21 13.4V10.6C21 8.88684 20.9984 7.72225 20.9249 6.82208C20.8533 5.94524 20.7234 5.49684 20.564 5.18404C20.1805 4.43139 19.5686 3.81947 18.816 3.43597C18.5032 3.27659 18.0548 3.14674 17.1779 3.0751C16.2777 3.00156 15.1132 3 13.4 3Z" fill="var(	--iconColor)"/>
    </symbol>

    <!-- spotify -->
    <symbol id="spotifyIcon" viewBox="0 0 20 20">
      <path d="M99.915,7327.865 C96.692,7325.951 91.375,7325.775 88.297,7326.709 C87.803,7326.858 87.281,7326.58 87.131,7326.085 C86.981,7325.591 87.26,7325.069 87.754,7324.919 C91.287,7323.846 97.159,7324.053 100.87,7326.256 C101.314,7326.52 101.46,7327.094 101.196,7327.538 C100.934,7327.982 100.358,7328.129 99.915,7327.865 L99.915,7327.865 Z M99.81,7330.7 C99.584,7331.067 99.104,7331.182 98.737,7330.957 C96.05,7329.305 91.952,7328.827 88.773,7329.792 C88.36,7329.916 87.925,7329.684 87.8,7329.272 C87.676,7328.86 87.908,7328.425 88.32,7328.3 C91.951,7327.198 96.466,7327.732 99.553,7329.629 C99.92,7329.854 100.035,7330.334 99.81,7330.7 L99.81,7330.7 Z M98.586,7333.423 C98.406,7333.717 98.023,7333.81 97.729,7333.63 C95.381,7332.195 92.425,7331.871 88.944,7332.666 C88.609,7332.743 88.274,7332.533 88.198,7332.197 C88.121,7331.862 88.33,7331.528 88.667,7331.451 C92.476,7330.58 95.743,7330.955 98.379,7332.566 C98.673,7332.746 98.766,7333.129 98.586,7333.423 L98.586,7333.423 Z M94,7319 C88.477,7319 84,7323.477 84,7329 C84,7334.523 88.477,7339 94,7339 C99.523,7339 104,7334.523 104,7329 C104,7323.478 99.523,7319.001 94,7319.001 L94,7319 Z"
      transform="translate(-140.000000, -7479.000000) translate(56.000000, 160.000000)" fill="var(--iconColor)" fill-rule="evenodd" stroke="none" stroke-width="1" >
      </path>
    </symbol>

    <!-- gmail -->
    <symbol id="gmailIcon" viewBox="0 0 512 512" fill="var(--iconColor)">
        <path d="M410.272,243.145c-3.63-4.486-10.211-5.179-14.695-1.548l-3.636,2.942c-4.485,3.631-5.177,10.211-1.546,14.696
			c2.066,2.551,5.083,3.875,8.128,3.875c2.309,0,4.634-0.762,6.568-2.328l3.635-2.942
			C413.21,254.209,413.903,247.63,410.272,243.145z"/>

        <path d="M380.363,267.357c-3.63-4.486-10.211-5.179-14.695-1.549l-74.708,59.674c-4.485,3.631-5.177,10.21-1.546,14.695
			c2.064,2.551,5.082,3.875,8.127,3.875c2.309,0,4.634-0.762,6.568-2.327l74.708-59.674
			C383.301,278.421,383.994,271.843,380.363,267.357z"/>

 		<path d="M449.742,62.685H62.258C27.929,62.685,0,90.614,0,124.942v262.117c0,34.329,27.929,62.257,62.258,62.257h387.484
			c34.33,0,62.258-27.928,62.258-62.257V124.942C512,90.614,484.072,62.685,449.742,62.685z M419.912,83.582L255.859,216.19
			L91.806,83.582H419.912z M428.126,428.418H83.592V184.382l165.712,133.49c3.826,3.082,9.284,3.082,13.11,0l165.711-133.49V428.418
			z M491.102,387.058c0,22.806-18.554,41.359-41.36,41.359h-0.717v-265.87c0-4.023-2.309-7.688-5.939-9.425
			c-3.632-1.738-7.934-1.235-11.065,1.288L255.859,296.318L79.697,154.41c-3.134-2.523-7.438-3.026-11.065-1.288
			c-3.63,1.737-5.939,5.402-5.939,9.425v265.87h-0.436c-22.805,0.001-41.359-18.553-41.359-41.358V124.942
			c0-21.626,16.688-39.418,37.861-41.2l190.532,154.012c1.915,1.549,4.242,2.323,6.568,2.323c2.327,0,4.653-0.774,6.568-2.323
			L452.983,83.721c21.295,1.66,38.119,19.507,38.119,41.22V387.058z"/>
    </symbol>

    <!-- facebook -->
    <symbol id="facebookIcon" viewBox="0 0 24 24">
    <path fill-rule="evenodd" clip-rule="evenodd" d="M20 1C21.6569 1 23 2.34315 23 4V20C23 21.6569 21.6569 23 20 23H4C2.34315 23 1 21.6569 1 20V4C1 2.34315 2.34315 1 4 1H20ZM20 3C20.5523 3 21 3.44772 21 4V20C21 20.5523 20.5523 21 20 21H15V13.9999H17.0762C17.5066 13.9999 17.8887 13.7245 18.0249 13.3161L18.4679 11.9871C18.6298 11.5014 18.2683 10.9999 17.7564 10.9999H15V8.99992C15 8.49992 15.5 7.99992 16 7.99992H18C18.5523 7.99992 19 7.5522 19 6.99992V6.31393C19 5.99091 18.7937 5.7013 18.4813 5.61887C17.1705 5.27295 16 5.27295 16 5.27295C13.5 5.27295 12 6.99992 12 8.49992V10.9999H10C9.44772 10.9999 9 11.4476 9 11.9999V12.9999C9 13.5522 9.44771 13.9999 10 13.9999H12V21H4C3.44772 21 3 20.5523 3 20V4C3 3.44772 3.44772 3 4 3H20Z" fill="var(--iconColor)"/>
    </symbol>
  </defs>
</svg>