<?xml version="1.0" standalone="no"?>
<!DOCTYPE svg PUBLIC "-//W3C//DTD SVG 20010904//EN"
 "http://www.w3.org/TR/2001/REC-SVG-20010904/DTD/svg10.dtd">
<svg version="1.0" xmlns="http://www.w3.org/2000/svg"
 width="400.000000pt" height="400.000000pt" viewBox="0 0 400.000000 400.000000"
 preserveAspectRatio="xMidYMid meet">

<g transform="translate(0.000000,400.000000) scale(0.100000,-0.100000)"
fill="#000000" stroke="none">
<path d="M1878 3660 c-117 -21 -249 -75 -343 -140 -22 -16 -263 -251 -536
-524 -543 -540 -564 -565 -621 -732 -61 -177 -61 -351 0 -528 36 -105 78 -176
158 -270 34 -39 264 -272 510 -517 489 -486 523 -513 687 -570 215 -74 427
-60 625 40 42 22 93 51 112 65 19 15 257 248 528 519 493 492 554 560 602 672
82 192 89 394 21 593 -53 153 -61 162 -606 710 -587 591 -604 605 -810 663
-79 22 -254 33 -327 19z m-22 -939 c23 -10 52 -34 65 -52 22 -31 24 -46 29
-187 5 -159 9 -171 52 -172 38 0 48 37 48 181 0 125 2 139 23 170 30 44 92 79
142 79 50 0 112 -35 142 -79 22 -32 23 -43 23 -225 0 -157 3 -196 16 -214 8
-12 22 -22 31 -22 27 0 53 31 53 62 0 16 9 46 20 67 57 113 223 114 292 3 23
-36 23 -42 23 -333 l0 -295 -25 -38 c-50 -74 -161 -100 -231 -53 -59 40 -79
80 -79 160 0 52 -4 75 -17 89 -22 24 -49 23 -67 -4 -14 -19 -16 -63 -16 -284
0 -255 -1 -262 -23 -295 -29 -43 -91 -79 -137 -79 -45 0 -118 37 -144 73 -19
25 -22 47 -26 189 -4 143 -7 161 -24 174 -24 17 -28 17 -52 0 -17 -13 -20 -31
-24 -173 -5 -155 -6 -161 -32 -195 -35 -46 -102 -73 -160 -65 -48 6 -84 30
-115 77 -22 31 -23 42 -23 224 0 157 -3 196 -16 214 -29 42 -84 17 -84 -39 0
-94 -114 -175 -210 -149 -54 14 -105 66 -120 119 -8 30 -10 130 -8 315 l3 273
27 40 c65 99 209 99 282 0 16 -22 22 -47 24 -107 3 -60 8 -83 22 -95 24 -22
58 -11 71 22 5 13 9 138 9 277 0 247 1 254 23 287 29 43 92 79 137 79 19 0 53
-9 76 -19z"/>
<path d="M2165 2625 c-31 -30 -32 -73 -5 -108 18 -23 20 -40 20 -195 0 -96 -5
-183 -11 -199 -15 -39 -67 -91 -103 -102 -17 -5 -56 -12 -86 -16 -73 -8 -145
-49 -181 -101 -16 -24 -29 -47 -29 -53 0 -16 -26 -13 -41 5 -20 24 -83 53
-131 59 -23 3 -58 8 -76 11 -18 3 -49 19 -69 37 -62 54 -80 127 -43 174 26 33
25 63 -1 97 -26 33 -79 36 -109 6 -26 -26 -27 -83 -2 -108 11 -11 22 -41 25
-67 12 -86 74 -165 152 -195 16 -6 60 -15 97 -20 80 -10 127 -40 158 -100 17
-33 20 -59 20 -171 0 -116 -2 -134 -20 -156 -46 -59 -4 -142 65 -129 60 12 86
85 45 126 -19 19 -20 33 -20 203 0 205 6 227 72 280 29 23 51 31 105 37 112
12 187 60 227 144 l18 38 21 -20 c38 -34 87 -54 161 -64 46 -6 84 -18 108 -34
70 -45 100 -148 58 -201 -41 -52 -9 -123 56 -123 61 0 99 85 55 124 -11 10
-20 36 -24 70 -7 67 -35 123 -82 164 -46 41 -86 57 -157 65 -77 7 -125 32
-156 80 -25 38 -27 49 -30 178 -3 128 -2 139 17 158 31 31 28 84 -5 110 -35
28 -69 26 -99 -4z"/>
</g>
</svg>
