<?xml version="1.0" standalone="no"?>
<!DOCTYPE svg PUBLIC "-//W3C//DTD SVG 1.1//EN" "http://www.w3.org/Graphics/SVG/1.1/DTD/svg11.dtd"><svg xmlns="http://www.w3.org/2000/svg" style="background-color:#FFF" width="1380" height="860"><path stroke="black" fill="none" stroke-width="1" d="M677.745, 33L677.905, 32.826L678.292, 32.689L678.988, 32.584L680.076, 32.507L681.639, 32.454L683.759, 32.421L686.519, 32.405L690, 32.4L693.481, 32.405L696.241, 32.421L698.361, 32.454L699.924, 32.507L701.012, 32.584L701.708, 32.689L702.095, 32.826L702.255, 33L702.495, 33.282L703, 33.468L703.828, 33.569L705.043, 33.6L706.049, 33.631L706.861, 33.716L707.403, 33.843L707.6, 34L707.758, 34.155L708.188, 34.283L709.6, 34.4L710.55, 34.43L711.167, 34.53L711.5, 34.715L711.6, 35L711.693, 35.281L711.996, 35.466L712.545, 35.569L713.376, 35.6L714.703, 35.718L715.164, 35.845L715.4, 36L715.924, 36.283L716.836, 36.4L717.754, 36.57L718.255, 37L718.699, 37.424L719.443, 37.6L720.119, 37.718L720.4, 38L720.512, 38.155L720.815, 38.283L721.813, 38.4L722.912, 38.559L723.455, 39L723.899, 39.424L724.643, 39.6L725.319, 39.718L725.6, 40L725.839, 40.283L726.413, 40.4L727.054, 40.576L727.455, 41L727.849, 41.424L728.471, 41.6L729.131, 41.748L729.754, 42.126L730.218, 42.634L730.4, 43.171L730.694, 43.474L731.4, 43.6L732.106, 43.718L732.4, 44L732.694, 44.283L733.4, 44.4L734.133, 44.56L734.4, 45L734.576, 45.424L735, 45.6L735.424, 45.718L735.6, 46L735.819, 46.283L736.344, 46.4L737.09, 46.694L737.839, 47.4L738.518, 48.106L739.095, 48.4L739.452, 48.576L739.6, 49L739.838, 49.428L740.429, 49.6L741.11, 49.746L741.746, 50.121L742.216, 50.628L742.4, 51.171L742.526, 51.474L742.829, 51.6L743.308, 51.768L743.822, 52.178L744.232, 52.692L744.4, 53.171L744.526, 53.474L744.829, 53.6L745.308, 53.768L745.822, 54.178L746.232, 54.692L746.4, 55.171L746.526, 55.474L746.829, 55.6L747.308, 55.768L747.822, 56.178L748.232, 56.692L748.4, 57.171L748.526, 57.474L748.829, 57.6L749.308, 57.768L749.822, 58.178L750.232, 58.692L750.4, 59.171L750.526, 59.474L750.829, 59.6L751.308, 59.768L751.822, 60.178L752.232, 60.692L752.4, 61.171L752.526, 61.474L752.829, 61.6L753.308, 61.768L753.822, 62.178L754.232, 62.692L754.4, 63.171L754.526, 63.474L754.829, 63.6L755.308, 63.768L755.822, 64.178L756.232, 64.692L756.4, 65.171L756.526, 65.474L756.829, 65.6L757.308, 65.768L757.822, 66.178L758.232, 66.692L758.4, 67.171L758.526, 67.474L758.829, 67.6L759.308, 67.768L759.822, 68.178L760.232, 68.692L760.4, 69.171L760.526, 69.474L760.829, 69.6L761.308, 69.768L761.822, 70.178L762.232, 70.692L762.4, 71.171L762.526, 71.474L762.829, 71.6L763.308, 71.768L763.822, 72.178L764.232, 72.692L764.4, 73.171L764.526, 73.474L764.829, 73.6L765.308, 73.768L765.822, 74.178L766.232, 74.692L766.4, 75.171L766.526, 75.474L766.829, 75.6L767.308, 75.768L767.822, 76.178L768.232, 76.692L768.4, 77.171L768.526, 77.474L768.829, 77.6L769.308, 77.768L769.822, 78.178L770.232, 78.692L770.4, 79.171L770.526, 79.474L770.829, 79.6L771.308, 79.768L771.822, 80.178L772.232, 80.692L772.4, 81.171L772.526, 81.474L772.829, 81.6L773.308, 81.768L773.822, 82.178L774.232, 82.692L774.4, 83.171L774.526, 83.474L774.829, 83.6L775.308, 83.768L775.822, 84.178L776.232, 84.692L776.4, 85.171L776.526, 85.474L776.829, 85.6L777.308, 85.768L777.822, 86.178L778.232, 86.692L778.4, 87.171L778.526, 87.474L778.829, 87.6L779.308, 87.768L779.822, 88.178L780.232, 88.692L780.4, 89.171L780.526, 89.474L780.829, 89.6L781.308, 89.768L781.822, 90.178L782.232, 90.692L782.4, 91.171L782.526, 91.474L782.829, 91.6L783.308, 91.768L783.822, 92.178L784.232, 92.692L784.4, 93.171L784.526, 93.474L784.829, 93.6L785.308, 93.768L785.822, 94.178L786.232, 94.692L786.4, 95.171L786.526, 95.474L786.829, 95.6L787.308, 95.768L787.822, 96.178L788.232, 96.692L788.4, 97.171L788.526, 97.474L788.829, 97.6L789.308, 97.768L789.822, 98.178L790.232, 98.692L790.4, 99.171L790.526, 99.474L790.829, 99.6L791.308, 99.768L791.822, 100.178L792.232, 100.692L792.4, 101.171L792.526, 101.474L792.829, 101.6L793.308, 101.768L793.822, 102.178L794.232, 102.692L794.4, 103.171L794.526, 103.474L794.829, 103.6L795.308, 103.768L795.822, 104.178L796.232, 104.692L796.4, 105.171L796.526, 105.474L796.829, 105.6L797.308, 105.768L797.822, 106.178L798.232, 106.692L798.4, 107.171L798.526, 107.474L798.829, 107.6L799.308, 107.768L799.822, 108.178L800.232, 108.692L800.4, 109.171L800.526, 109.474L800.829, 109.6L801.308, 109.768L801.822, 110.178L802.232, 110.692L802.4, 111.171L802.526, 111.474L802.829, 111.6L803.308, 111.768L803.822, 112.178L804.232, 112.692L804.4, 113.171L804.526, 113.474L804.829, 113.6L805.308, 113.768L805.822, 114.178L806.232, 114.692L806.4, 115.171L806.526, 115.474L806.829, 115.6L807.308, 115.768L807.822, 116.178L808.232, 116.692L808.4, 117.171L808.526, 117.474L808.829, 117.6L809.308, 117.768L809.822, 118.178L810.232, 118.692L810.4, 119.171L810.526, 119.474L810.829, 119.6L811.308, 119.768L811.822, 120.178L812.232, 120.692L812.4, 121.171L812.526, 121.474L812.829, 121.6L813.308, 121.768L813.822, 122.178L814.232, 122.692L814.4, 123.171L814.526, 123.474L814.829, 123.6L815.308, 123.768L815.822, 124.178L816.232, 124.692L816.4, 125.171L816.526, 125.474L816.829, 125.6L817.308, 125.768L817.822, 126.178L818.232, 126.692L818.4, 127.171L818.526, 127.474L818.829, 127.6L819.308, 127.768L819.822, 128.178L820.232, 128.692L820.4, 129.171L820.526, 129.474L820.829, 129.6L821.308, 129.768L821.822, 130.178L822.232, 130.692L822.4, 131.171L822.526, 131.474L822.829, 131.6L823.308, 131.768L823.822, 132.178L824.232, 132.692L824.4, 133.171L824.526, 133.474L824.829, 133.6L825.308, 133.768L825.822, 134.178L826.232, 134.692L826.4, 135.171L826.526, 135.474L826.829, 135.6L827.308, 135.768L827.822, 136.178L828.232, 136.692L828.4, 137.171L828.526, 137.474L828.829, 137.6L829.308, 137.768L829.822, 138.178L830.232, 138.692L830.4, 139.171L830.526, 139.474L830.829, 139.6L831.308, 139.768L831.822, 140.178L832.232, 140.692L832.4, 141.171L832.526, 141.474L832.829, 141.6L833.299, 141.768L833.829, 142.171L834.232, 142.701L834.4, 143.171L834.526, 143.474L834.829, 143.6L835.308, 143.768L835.822, 144.178L836.232, 144.692L836.4, 145.171L836.526, 145.474L836.829, 145.6L837.299, 145.768L837.829, 146.171L838.232, 146.701L838.4, 147.171L838.534, 147.474L838.856, 147.6L839.353, 147.806L839.847, 148.326L840.228, 149.007L840.387, 149.7L840.572, 150.194L841, 150.4L841.424, 150.548L841.6, 150.905L841.894, 151.482L842.6, 152.161L843.306, 152.91L843.6, 153.656L843.718, 154.181L844, 154.4L844.283, 154.564L844.4, 154.957L844.576, 155.419L845, 155.745L845.424, 156.146L845.6, 156.787L845.718, 157.361L846, 157.6L846.283, 157.894L846.4, 158.6L846.534, 159.306L846.856, 159.6L847.347, 159.805L847.841, 160.318L848.226, 160.986L848.387, 161.657L848.572, 162.189L849, 162.545L849.424, 162.939L849.6, 163.564L849.718, 164.194L850, 164.6L850.283, 164.99L850.4, 165.581L850.576, 166.167L851, 166.545L851.441, 167.088L851.6, 168.187L851.718, 169.185L851.845, 169.488L852, 169.6L852.283, 169.881L852.4, 170.557L852.576, 171.301L853, 171.745L853.43, 172.246L853.6, 173.164L853.718, 174.076L854, 174.6L854.155, 174.836L854.283, 175.297L854.4, 176.624L854.431, 177.455L854.534, 178.004L854.719, 178.307L855, 178.4L855.285, 178.5L855.47, 178.833L855.57, 179.45L855.6, 180.4L855.718, 181.813L855.845, 182.242L856, 182.4L856.157, 182.597L856.284, 183.139L856.369, 183.951L856.4, 184.957L856.431, 186.172L856.532, 187.001L856.718, 187.505L857, 187.745L857.173, 187.902L857.311, 188.279L857.416, 188.955L857.493, 190.01L857.546, 191.522L857.579, 193.572L857.595, 196.238L857.6, 199.6L857.595, 202.962L857.579, 205.628L857.546, 207.678L857.493, 209.19L857.416, 210.245L857.311, 210.921L857.173, 211.298L857, 211.455L856.713, 211.71L856.528, 212.268L856.429, 213.216L856.4, 214.643L856.37, 215.824L856.287, 216.761L856.16, 217.378L856, 217.6L855.845, 217.743L855.718, 218.133L855.6, 219.413L855.564, 220.234L855.454, 220.841L855.267, 221.244L855, 221.455L854.735, 221.663L854.548, 222.056L854.437, 222.64L854.4, 223.419L854.283, 224.716L854.155, 225.167L854, 225.4L853.718, 225.924L853.6, 226.836L853.43, 227.754L853, 228.255L852.576, 228.699L852.4, 229.443L852.283, 230.119L852, 230.4L851.845, 230.512L851.718, 230.815L851.6, 231.813L851.441, 232.912L851, 233.455L850.576, 233.899L850.4, 234.643L850.283, 235.319L850, 235.6L849.718, 235.839L849.6, 236.413L849.424, 237.054L849, 237.455L848.576, 237.849L848.4, 238.471L848.252, 239.131L847.874, 239.754L847.366, 240.218L846.829, 240.4L846.526, 240.694L846.4, 241.4L846.283, 242.106L846, 242.4L845.718, 242.694L845.6, 243.4L845.44, 244.133L845, 244.4L844.576, 244.576L844.4, 245L844.283, 245.424L844, 245.6L843.718, 245.819L843.6, 246.344L843.306, 247.09L842.6, 247.839L841.894, 248.518L841.6, 249.095L841.424, 249.452L841, 249.6L840.573, 249.838L840.4, 250.429L840.254, 251.11L839.879, 251.746L839.372, 252.216L838.829, 252.4L838.526, 252.526L838.4, 252.829L838.232, 253.308L837.822, 253.822L837.308, 254.232L836.829, 254.4L836.526, 254.526L836.4, 254.829L836.232, 255.308L835.822, 255.822L835.308, 256.232L834.829, 256.4L834.526, 256.526L834.4, 256.829L834.232, 257.308L833.822, 257.822L833.308, 258.232L832.829, 258.4L832.526, 258.526L832.4, 258.829L832.232, 259.308L831.822, 259.822L831.308, 260.232L830.829, 260.4L830.526, 260.526L830.4, 260.829L830.232, 261.308L829.822, 261.822L829.308, 262.232L828.829, 262.4L828.526, 262.526L828.4, 262.829L828.232, 263.308L827.822, 263.822L827.308, 264.232L826.829, 264.4L826.526, 264.526L826.4, 264.829L826.232, 265.308L825.822, 265.822L825.308, 266.232L824.829, 266.4L824.526, 266.526L824.4, 266.829L824.232, 267.308L823.822, 267.822L823.308, 268.232L822.829, 268.4L822.526, 268.526L822.4, 268.829L822.232, 269.308L821.822, 269.822L821.308, 270.232L820.829, 270.4L820.526, 270.526L820.4, 270.829L820.232, 271.308L819.822, 271.822L819.308, 272.232L818.829, 272.4L818.526, 272.526L818.4, 272.829L818.232, 273.308L817.822, 273.822L817.308, 274.232L816.829, 274.4L816.526, 274.526L816.4, 274.829L816.232, 275.308L815.822, 275.822L815.308, 276.232L814.829, 276.4L814.526, 276.526L814.4, 276.829L814.232, 277.308L813.822, 277.822L813.308, 278.232L812.829, 278.4L812.526, 278.526L812.4, 278.829L812.232, 279.308L811.822, 279.822L811.308, 280.232L810.829, 280.4L810.526, 280.526L810.4, 280.829L810.232, 281.308L809.822, 281.822L809.308, 282.232L808.829, 282.4L808.526, 282.526L808.4, 282.829L808.232, 283.308L807.822, 283.822L807.308, 284.232L806.829, 284.4L806.526, 284.526L806.4, 284.829L806.232, 285.308L805.822, 285.822L805.308, 286.232L804.829, 286.4L804.526, 286.526L804.4, 286.829L804.232, 287.308L803.822, 287.822L803.308, 288.232L802.829, 288.4L802.526, 288.526L802.4, 288.829L802.232, 289.308L801.822, 289.822L801.308, 290.232L800.829, 290.4L800.526, 290.526L800.4, 290.829L800.232, 291.308L799.822, 291.822L799.308, 292.232L798.829, 292.4L798.526, 292.526L798.4, 292.829L798.232, 293.308L797.822, 293.822L797.308, 294.232L796.829, 294.4L796.526, 294.526L796.4, 294.829L796.232, 295.308L795.822, 295.822L795.308, 296.232L794.829, 296.4L794.526, 296.526L794.4, 296.829L794.232, 297.308L793.822, 297.822L793.308, 298.232L792.829, 298.4L792.526, 298.526L792.4, 298.829L792.232, 299.308L791.822, 299.822L791.308, 300.232L790.829, 300.4L790.526, 300.526L790.4, 300.829L790.232, 301.308L789.822, 301.822L789.308, 302.232L788.829, 302.4L788.526, 302.526L788.4, 302.829L788.232, 303.308L787.822, 303.822L787.308, 304.232L786.829, 304.4L786.526, 304.526L786.4, 304.829L786.232, 305.308L785.822, 305.822L785.308, 306.232L784.829, 306.4L784.526, 306.526L784.4, 306.829L784.232, 307.308L783.822, 307.822L783.308, 308.232L782.829, 308.4L782.526, 308.526L782.4, 308.829L782.232, 309.308L781.822, 309.822L781.308, 310.232L780.829, 310.4L780.526, 310.526L780.4, 310.829L780.232, 311.308L779.822, 311.822L779.308, 312.232L778.829, 312.4L778.526, 312.526L778.4, 312.829L778.232, 313.308L777.822, 313.822L777.308, 314.232L776.829, 314.4L776.526, 314.526L776.4, 314.829L776.232, 315.308L775.822, 315.822L775.308, 316.232L774.829, 316.4L774.526, 316.526L774.4, 316.829L774.232, 317.308L773.822, 317.822L773.308, 318.232L772.829, 318.4L772.526, 318.526L772.4, 318.829L772.232, 319.308L771.822, 319.822L771.308, 320.232L770.829, 320.4L770.526, 320.526L770.4, 320.829L770.232, 321.308L769.822, 321.822L769.308, 322.232L768.829, 322.4L768.526, 322.526L768.4, 322.829L768.232, 323.308L767.822, 323.822L767.308, 324.232L766.829, 324.4L766.526, 324.526L766.4, 324.829L766.232, 325.308L765.822, 325.822L765.308, 326.232L764.829, 326.4L764.526, 326.526L764.4, 326.829L764.232, 327.308L763.822, 327.822L763.308, 328.232L762.829, 328.4L762.526, 328.526L762.4, 328.829L762.232, 329.308L761.822, 329.822L761.308, 330.232L760.829, 330.4L760.526, 330.526L760.4, 330.829L760.232, 331.308L759.822, 331.822L759.308, 332.232L758.829, 332.4L758.526, 332.526L758.4, 332.829L758.232, 333.308L757.822, 333.822L757.308, 334.232L756.829, 334.4L756.526, 334.526L756.4, 334.829L756.232, 335.308L755.822, 335.822L755.308, 336.232L754.829, 336.4L754.526, 336.526L754.4, 336.829L754.232, 337.308L753.822, 337.822L753.308, 338.232L752.829, 338.4L752.526, 338.526L752.4, 338.829L752.232, 339.308L751.822, 339.822L751.308, 340.232L750.829, 340.4L750.526, 340.526L750.4, 340.829L750.232, 341.308L749.822, 341.822L749.308, 342.232L748.829, 342.4L748.526, 342.526L748.4, 342.829L748.232, 343.308L747.822, 343.822L747.308, 344.232L746.829, 344.4L746.526, 344.526L746.4, 344.829L746.232, 345.308L745.822, 345.822L745.308, 346.232L744.829, 346.4L744.526, 346.526L744.4, 346.829L744.232, 347.308L743.822, 347.822L743.308, 348.232L742.829, 348.4L742.526, 348.534L742.4, 348.856L742.194, 349.353L741.674, 349.847L740.993, 350.228L740.3, 350.387L739.806, 350.572L739.6, 351L739.452, 351.424L739.095, 351.6L738.518, 351.894L737.839, 352.6L737.09, 353.306L736.344, 353.6L735.819, 353.718L735.6, 354L735.436, 354.282L735.043, 354.4L734.582, 354.576L734.255, 355L733.854, 355.424L733.213, 355.6L732.639, 355.718L732.4, 356L732.106, 356.282L731.4, 356.4L730.694, 356.534L730.4, 356.856L730.195, 357.347L729.682, 357.841L729.014, 358.226L728.343, 358.387L727.811, 358.572L727.455, 359L727.061, 359.424L726.436, 359.6L725.806, 359.718L725.4, 360L725.01, 360.282L724.419, 360.4L723.834, 360.576L723.455, 361L722.912, 361.441L721.813, 361.6L720.815, 361.718L720.512, 361.845L720.4, 362L720.119, 362.282L719.443, 362.4L718.699, 362.576L718.255, 363L717.754, 363.43L716.836, 363.6L715.924, 363.718L715.4, 364L715.164, 364.155L714.703, 364.282L713.376, 364.4L712.545, 364.431L711.996, 364.534L711.693, 364.719L711.6, 365L711.5, 365.285L711.167, 365.47L710.55, 365.57L709.6, 365.6L708.188, 365.718L707.758, 365.845L707.6, 366L707.403, 366.157L706.861, 366.284L706.049, 366.369L705.043, 366.4L703.828, 366.431L702.999, 366.532L702.495, 366.718L702.255, 367L702.095, 367.174L701.708, 367.311L701.012, 367.416L699.924, 367.493L698.361, 367.546L696.241, 367.579L693.481, 367.595L690, 367.6L686.519, 367.595L683.759, 367.579L681.639, 367.546L680.076, 367.493L678.988, 367.416L678.292, 367.311L677.905, 367.174L677.745, 367L677.505, 366.718L677, 366.532L676.172, 366.431L674.957, 366.4L673.951, 366.369L673.139, 366.284L672.597, 366.157L672.4, 366L672.242, 365.845L671.812, 365.718L670.4, 365.6L669.45, 365.57L668.833, 365.47L668.5, 365.285L668.4, 365L668.307, 364.719L668.004, 364.534L667.455, 364.431L666.624, 364.4L665.297, 364.283L664.836, 364.155L664.6, 364L664.076, 363.718L663.164, 363.6L662.246, 363.43L661.745, 363L661.301, 362.576L660.557, 362.4L659.881, 362.283L659.6, 362L659.488, 361.845L659.185, 361.718L658.187, 361.6L657.088, 361.441L656.545, 361L656.101, 360.576L655.357, 360.4L654.681, 360.283L654.4, 360L654.161, 359.718L653.587, 359.6L652.946, 359.424L652.545, 359L652.151, 358.576L651.529, 358.4L650.869, 358.252L650.246, 357.874L649.782, 357.366L649.6, 356.829L649.306, 356.526L648.6, 356.4L647.894, 356.283L647.6, 356L647.306, 355.718L646.6, 355.6L645.867, 355.44L645.6, 355L645.424, 354.576L645, 354.4L644.576, 354.283L644.4, 354L644.181, 353.718L643.656, 353.6L642.91, 353.306L642.161, 352.6L641.482, 351.894L640.905, 351.6L640.548, 351.424L640.4, 351L640.162, 350.573L639.571, 350.4L638.89, 350.254L638.254, 349.879L637.784, 349.372L637.6, 348.829L637.474, 348.526L637.171, 348.4L636.692, 348.232L636.178, 347.822L635.768, 347.308L635.6, 346.829L635.474, 346.526L635.171, 346.4L634.692, 346.232L634.178, 345.822L633.768, 345.308L633.6, 344.829L633.474, 344.526L633.171, 344.4L632.692, 344.232L632.178, 343.822L631.768, 343.308L631.6, 342.829L631.474, 342.526L631.171, 342.4L630.692, 342.232L630.178, 341.822L629.768, 341.308L629.6, 340.829L629.474, 340.526L629.171, 340.4L628.692, 340.232L628.178, 339.822L627.768, 339.308L627.6, 338.829L627.474, 338.526L627.171, 338.4L626.692, 338.232L626.178, 337.822L625.768, 337.308L625.6, 336.829L625.474, 336.526L625.171, 336.4L624.692, 336.232L624.178, 335.822L623.768, 335.308L623.6, 334.829L623.474, 334.526L623.171, 334.4L622.692, 334.232L622.178, 333.822L621.768, 333.308L621.6, 332.829L621.474, 332.526L621.171, 332.4L620.692, 332.232L620.178, 331.822L619.768, 331.308L619.6, 330.829L619.474, 330.526L619.171, 330.4L618.692, 330.232L618.178, 329.822L617.768, 329.308L617.6, 328.829L617.474, 328.526L617.171, 328.4L616.692, 328.232L616.178, 327.822L615.768, 327.308L615.6, 326.829L615.474, 326.526L615.171, 326.4L614.692, 326.232L614.178, 325.822L613.768, 325.308L613.6, 324.829L613.474, 324.526L613.171, 324.4L612.692, 324.232L612.178, 323.822L611.768, 323.308L611.6, 322.829L611.474, 322.526L611.171, 322.4L610.692, 322.232L610.178, 321.822L609.768, 321.308L609.6, 320.829L609.474, 320.526L609.171, 320.4L608.692, 320.232L608.178, 319.822L607.768, 319.308L607.6, 318.829L607.474, 318.526L607.171, 318.4L606.692, 318.232L606.178, 317.822L605.768, 317.308L605.6, 316.829L605.474, 316.526L605.171, 316.4L604.692, 316.232L604.178, 315.822L603.768, 315.308L603.6, 314.829L603.474, 314.526L603.171, 314.4L602.692, 314.232L602.178, 313.822L601.768, 313.308L601.6, 312.829L601.474, 312.526L601.171, 312.4L600.692, 312.232L600.178, 311.822L599.768, 311.308L599.6, 310.829L599.474, 310.526L599.171, 310.4L598.692, 310.232L598.178, 309.822L597.768, 309.308L597.6, 308.829L597.474, 308.526L597.171, 308.4L596.692, 308.232L596.178, 307.822L595.768, 307.308L595.6, 306.829L595.474, 306.526L595.171, 306.4L594.692, 306.232L594.178, 305.822L593.768, 305.308L593.6, 304.829L593.474, 304.526L593.171, 304.4L592.692, 304.232L592.178, 303.822L591.768, 303.308L591.6, 302.829L591.474, 302.526L591.171, 302.4L590.692, 302.232L590.178, 301.822L589.768, 301.308L589.6, 300.829L589.474, 300.526L589.171, 300.4L588.692, 300.232L588.178, 299.822L587.768, 299.308L587.6, 298.829L587.474, 298.526L587.171, 298.4L586.692, 298.232L586.178, 297.822L585.768, 297.308L585.6, 296.829L585.474, 296.526L585.171, 296.4L584.692, 296.232L584.178, 295.822L583.768, 295.308L583.6, 294.829L583.474, 294.526L583.171, 294.4L582.692, 294.232L582.178, 293.822L581.768, 293.308L581.6, 292.829L581.474, 292.526L581.171, 292.4L580.692, 292.232L580.178, 291.822L579.768, 291.308L579.6, 290.829L579.474, 290.526L579.171, 290.4L578.692, 290.232L578.178, 289.822L577.768, 289.308L577.6, 288.829L577.474, 288.526L577.171, 288.4L576.692, 288.232L576.178, 287.822L575.768, 287.308L575.6, 286.829L575.474, 286.526L575.171, 286.4L574.692, 286.232L574.178, 285.822L573.768, 285.308L573.6, 284.829L573.474, 284.526L573.171, 284.4L572.692, 284.232L572.178, 283.822L571.768, 283.308L571.6, 282.829L571.474, 282.526L571.171, 282.4L570.692, 282.232L570.178, 281.822L569.768, 281.308L569.6, 280.829L569.474, 280.526L569.171, 280.4L568.692, 280.232L568.178, 279.822L567.768, 279.308L567.6, 278.829L567.474, 278.526L567.171, 278.4L566.692, 278.232L566.178, 277.822L565.768, 277.308L565.6, 276.829L565.474, 276.526L565.171, 276.4L564.692, 276.232L564.178, 275.822L563.768, 275.308L563.6, 274.829L563.474, 274.526L563.171, 274.4L562.692, 274.232L562.178, 273.822L561.768, 273.308L561.6, 272.829L561.474, 272.526L561.171, 272.4L560.692, 272.232L560.178, 271.822L559.768, 271.308L559.6, 270.829L559.474, 270.526L559.171, 270.4L558.692, 270.232L558.178, 269.822L557.768, 269.308L557.6, 268.829L557.474, 268.526L557.171, 268.4L556.692, 268.232L556.178, 267.822L555.768, 267.308L555.6, 266.829L555.474, 266.526L555.171, 266.4L554.692, 266.232L554.178, 265.822L553.768, 265.308L553.6, 264.829L553.474, 264.526L553.171, 264.4L552.692, 264.232L552.178, 263.822L551.768, 263.308L551.6, 262.829L551.474, 262.526L551.171, 262.4L550.692, 262.232L550.178, 261.822L549.768, 261.308L549.6, 260.829L549.474, 260.526L549.171, 260.4L548.692, 260.232L548.178, 259.822L547.768, 259.308L547.6, 258.829L547.474, 258.526L547.171, 258.4L546.692, 258.232L546.178, 257.822L545.768, 257.308L545.6, 256.829L545.474, 256.526L545.171, 256.4L544.692, 256.232L544.178, 255.822L543.768, 255.308L543.6, 254.829L543.474, 254.526L543.171, 254.4L542.692, 254.232L542.178, 253.822L541.768, 253.308L541.6, 252.829L541.466, 252.526L541.144, 252.4L540.647, 252.194L540.154, 251.674L539.772, 250.993L539.613, 250.3L539.428, 249.806L539, 249.6L538.576, 249.452L538.4, 249.095L538.106, 248.518L537.4, 247.839L536.694, 247.09L536.4, 246.344L536.282, 245.819L536, 245.6L535.717, 245.436L535.6, 245.043L535.424, 244.582L535, 244.255L534.576, 243.854L534.4, 243.213L534.282, 242.639L534, 242.4L533.717, 242.106L533.6, 241.4L533.466, 240.694L533.144, 240.4L532.653, 240.195L532.159, 239.682L531.774, 239.014L531.613, 238.343L531.428, 237.811L531, 237.455L530.576, 237.061L530.4, 236.436L530.282, 235.806L530, 235.4L529.717, 235.01L529.6, 234.419L529.424, 233.834L529, 233.455L528.559, 232.912L528.4, 231.813L528.282, 230.815L528.155, 230.512L528, 230.4L527.717, 230.119L527.6, 229.443L527.424, 228.699L527, 228.255L526.57, 227.754L526.4, 226.836L526.282, 225.924L526, 225.4L525.845, 225.164L525.717, 224.703L525.6, 223.376L525.569, 222.545L525.466, 221.996L525.281, 221.693L525, 221.6L524.715, 221.5L524.53, 221.167L524.43, 220.55L524.4, 219.6L524.282, 218.188L524.155, 217.758L524, 217.6L523.843, 217.403L523.716, 216.861L523.631, 216.049L523.6, 215.043L523.569, 213.828L523.468, 213L523.282, 212.495L523, 212.255L522.841, 211.927L522.704, 211.117L522.587, 209.894L522.492, 208.328L522.418, 206.487L522.365, 204.439L522.323, 200L522.365, 195.561L522.418, 193.513L522.492, 191.672L522.587, 190.106L522.704, 188.883L522.841, 188.073L523, 187.745L523.282, 187.505L523.468, 187.001L523.569, 186.172L523.6, 184.957L523.631, 183.951L523.716, 183.139L523.843, 182.597L524, 182.4L524.155, 182.242L524.282, 181.813L524.4, 180.4L524.43, 179.45L524.53, 178.833L524.715, 178.5L525, 178.4L525.281, 178.307L525.466, 178.004L525.569, 177.455L525.6, 176.624L525.717, 175.297L525.845, 174.836L526, 174.6L526.282, 174.076L526.4, 173.164L526.57, 172.246L527, 171.745L527.424, 171.301L527.6, 170.557L527.717, 169.881L528, 169.6L528.155, 169.488L528.282, 169.185L528.4, 168.187L528.559, 167.088L529, 166.545L529.424, 166.101L529.6, 165.357L529.717, 164.681L530, 164.4L530.282, 164.161L530.4, 163.587L530.576, 162.946L531, 162.545L531.424, 162.151L531.6, 161.529L531.748, 160.869L532.126, 160.246L532.634, 159.782L533.171, 159.6L533.474, 159.306L533.6, 158.6L533.717, 157.894L534, 157.6L534.282, 157.306L534.4, 156.6L534.56, 155.867L535, 155.6L535.424, 155.424L535.6, 155L535.717, 154.576L536, 154.4L536.282, 154.181L536.4, 153.656L536.694, 152.91L537.4, 152.161L538.106, 151.482L538.4, 150.905L538.576, 150.548L539, 150.4L539.427, 150.162L539.6, 149.571L539.746, 148.89L540.121, 148.254L540.628, 147.784L541.171, 147.6L541.474, 147.474L541.6, 147.171L541.768, 146.701L542.171, 146.171L542.701, 145.768L543.171, 145.6L543.474, 145.474L543.6, 145.171L543.768, 144.701L544.171, 144.171L544.701, 143.768L545.171, 143.6L545.474, 143.474L545.6, 143.171L545.768, 142.692L546.178, 142.178L546.692, 141.768L547.171, 141.6L547.474, 141.474L547.6, 141.171L547.768, 140.692L548.178, 140.178L548.692, 139.768L549.171, 139.6L549.474, 139.474L549.6, 139.171L549.768, 138.692L550.178, 138.178L550.692, 137.768L551.171, 137.6L551.474, 137.474L551.6, 137.171L551.768, 136.692L552.178, 136.178L552.692, 135.768L553.171, 135.6L553.474, 135.474L553.6, 135.171L553.768, 134.692L554.178, 134.178L554.692, 133.768L555.171, 133.6L555.474, 133.474L555.6, 133.171L555.768, 132.692L556.178, 132.178L556.692, 131.768L557.171, 131.6L557.474, 131.474L557.6, 131.171L557.768, 130.692L558.178, 130.178L558.692, 129.768L559.171, 129.6L559.474, 129.474L559.6, 129.171L559.768, 128.692L560.178, 128.178L560.692, 127.768L561.171, 127.6L561.474, 127.474L561.6, 127.171L561.768, 126.692L562.178, 126.178L562.692, 125.768L563.171, 125.6L563.474, 125.474L563.6, 125.171L563.768, 124.692L564.178, 124.178L564.692, 123.768L565.171, 123.6L565.474, 123.474L565.6, 123.171L565.768, 122.692L566.178, 122.178L566.692, 121.768L567.171, 121.6L567.474, 121.474L567.6, 121.171L567.768, 120.692L568.178, 120.178L568.692, 119.768L569.171, 119.6L569.474, 119.474L569.6, 119.171L569.768, 118.692L570.178, 118.178L570.692, 117.768L571.171, 117.6L571.474, 117.474L571.6, 117.171L571.768, 116.692L572.178, 116.178L572.692, 115.768L573.171, 115.6L573.474, 115.474L573.6, 115.171L573.768, 114.692L574.178, 114.178L574.692, 113.768L575.171, 113.6L575.474, 113.474L575.6, 113.171L575.768, 112.692L576.178, 112.178L576.692, 111.768L577.171, 111.6L577.474, 111.474L577.6, 111.171L577.768, 110.692L578.178, 110.178L578.692, 109.768L579.171, 109.6L579.474, 109.474L579.6, 109.171L579.768, 108.692L580.178, 108.178L580.692, 107.768L581.171, 107.6L581.474, 107.474L581.6, 107.171L581.768, 106.692L582.178, 106.178L582.692, 105.768L583.171, 105.6L583.474, 105.474L583.6, 105.171L583.768, 104.692L584.178, 104.178L584.692, 103.768L585.171, 103.6L585.474, 103.474L585.6, 103.171L585.768, 102.692L586.178, 102.178L586.692, 101.768L587.171, 101.6L587.474, 101.474L587.6, 101.171L587.768, 100.692L588.178, 100.178L588.692, 99.768L589.171, 99.6L589.474, 99.474L589.6, 99.171L589.768, 98.692L590.178, 98.178L590.692, 97.768L591.171, 97.6L591.474, 97.474L591.6, 97.171L591.768, 96.692L592.178, 96.178L592.692, 95.768L593.171, 95.6L593.474, 95.474L593.6, 95.171L593.768, 94.692L594.178, 94.178L594.692, 93.768L595.171, 93.6L595.474, 93.474L595.6, 93.171L595.768, 92.692L596.178, 92.178L596.692, 91.768L597.171, 91.6L597.474, 91.474L597.6, 91.171L597.768, 90.692L598.178, 90.178L598.692, 89.768L599.171, 89.6L599.474, 89.474L599.6, 89.171L599.768, 88.692L600.178, 88.178L600.692, 87.768L601.171, 87.6L601.474, 87.474L601.6, 87.171L601.768, 86.692L602.178, 86.178L602.692, 85.768L603.171, 85.6L603.474, 85.474L603.6, 85.171L603.768, 84.692L604.178, 84.178L604.692, 83.768L605.171, 83.6L605.474, 83.474L605.6, 83.171L605.768, 82.701L606.171, 82.171L606.701, 81.768L607.171, 81.6L607.474, 81.474L607.6, 81.171L607.768, 80.701L608.171, 80.171L608.701, 79.768L609.171, 79.6L609.474, 79.474L609.6, 79.171L609.768, 78.692L610.178, 78.178L610.692, 77.768L611.171, 77.6L611.474, 77.474L611.6, 77.171L611.768, 76.692L612.178, 76.178L612.692, 75.768L613.171, 75.6L613.474, 75.474L613.6, 75.171L613.768, 74.692L614.178, 74.178L614.692, 73.768L615.171, 73.6L615.474, 73.474L615.6, 73.171L615.768, 72.692L616.178, 72.178L616.692, 71.768L617.171, 71.6L617.474, 71.474L617.6, 71.171L617.768, 70.692L618.178, 70.178L618.692, 69.768L619.171, 69.6L619.474, 69.474L619.6, 69.171L619.768, 68.692L620.178, 68.178L620.692, 67.768L621.171, 67.6L621.474, 67.474L621.6, 67.171L621.768, 66.692L622.178, 66.178L622.692, 65.768L623.171, 65.6L623.474, 65.474L623.6, 65.171L623.768, 64.692L624.178, 64.178L624.692, 63.768L625.171, 63.6L625.474, 63.474L625.6, 63.171L625.768, 62.692L626.178, 62.178L626.692, 61.768L627.171, 61.6L627.474, 61.474L627.6, 61.171L627.768, 60.692L628.178, 60.178L628.692, 59.768L629.171, 59.6L629.474, 59.474L629.6, 59.171L629.768, 58.692L630.178, 58.178L630.692, 57.768L631.171, 57.6L631.474, 57.474L631.6, 57.171L631.768, 56.692L632.178, 56.178L632.692, 55.768L633.171, 55.6L633.474, 55.474L633.6, 55.171L633.768, 54.692L634.178, 54.178L634.692, 53.768L635.171, 53.6L635.474, 53.474L635.6, 53.171L635.768, 52.692L636.178, 52.178L636.692, 51.768L637.171, 51.6L637.474, 51.474L637.6, 51.171L637.784, 50.628L638.254, 50.121L638.89, 49.746L639.571, 49.6L640.162, 49.427L640.4, 49L640.548, 48.576L640.905, 48.4L641.482, 48.106L642.161, 47.4L642.91, 46.694L643.656, 46.4L644.181, 46.283L644.4, 46L644.576, 45.718L645, 45.6L645.424, 45.424L645.6, 45L645.867, 44.56L646.6, 44.4L647.306, 44.283L647.6, 44L647.894, 43.718L648.6, 43.6L649.306, 43.466L649.6, 43.144L649.805, 42.653L650.318, 42.159L650.986, 41.774L651.657, 41.613L652.189, 41.428L652.545, 41L652.939, 40.576L653.564, 40.4L654.194, 40.283L654.6, 40L654.99, 39.718L655.581, 39.6L656.166, 39.424L656.545, 39L657.088, 38.559L658.187, 38.4L659.185, 38.283L659.488, 38.155L659.6, 38L659.881, 37.718L660.557, 37.6L661.301, 37.424L661.745, 37L662.246, 36.57L663.164, 36.4L664.076, 36.283L664.6, 36L664.836, 35.845L665.297, 35.718L666.624, 35.6L667.455, 35.569L668.004, 35.466L668.307, 35.281L668.4, 35L668.5, 34.715L668.833, 34.53L669.45, 34.43L670.4, 34.4L671.813, 34.283L672.242, 34.155L672.4, 34L672.597, 33.843L673.139, 33.716L673.951, 33.631L674.957, 33.6L676.172, 33.569L677.001, 33.468L677.505, 33.282L677.745, 33"/><path stroke="black" fill="none" stroke-width="1" d="M675.81, 127.419L678.706, 129.018L681.014, 130.796L682.797, 132.918L684.116, 135.549L684.621, 137.108L685.033, 138.855L685.361, 140.812L685.612, 143L685.793, 145.439L685.913, 148.15L685.98, 151.153L686, 154.469L686, 166.338L687.231, 167.569L688.557, 168.519L689.968, 168.848L691.392, 168.555L692.758, 167.64L694, 166.479L694, 154.786L694.029, 150.189L694.12, 146.316L694.282, 143.103L694.521, 140.491L694.845, 138.416L695.261, 136.818L695.778, 135.633L696.401, 134.8L696.709, 134.335L697.169, 133.498L697.807, 132.528L698.744, 131.449L701.145, 129.258L702.427, 128.293L703.641, 127.513L704.696, 126.99L705.501, 126.8L706.161, 126.662L706.712, 126.328L707.203, 126.125L708.198, 125.977L709.673, 125.887L711.6, 125.856L713.527, 125.887L715.002, 125.977L715.997, 126.125L716.488, 126.328L717.039, 126.662L717.699, 126.8L718.638, 127.015L719.805, 127.612L721.117, 128.517L722.492, 129.658L725.106, 132.35L726.18, 133.756L726.989, 135.104L728.077, 137.681L728.429, 139.203L728.682, 141.215L728.779, 142.484L728.859, 143.969L728.927, 145.702L728.984, 147.714L729.034, 150.037L729.079, 152.703L729.123, 155.741L729.167, 159.185L729.4, 177.769L730.759, 178.685L732.173, 179.379L733.549, 179.53L734.889, 179.137L736.197, 178.2L736.67, 177.407L737.127, 176.02L737.518, 174.224L737.795, 172.205L738.074, 170.401L738.247, 169.764L738.415, 169.425L738.687, 168.982L738.8, 168.458L738.879, 168.129L739.094, 167.662L739.8, 166.564L740.506, 165.522L740.721, 165.115L740.8, 164.858L740.975, 164.532L741.443, 164.002L742.903, 162.631L744.477, 161.36L745.086, 160.953L745.46, 160.8L745.833, 160.712L746.067, 160.5L746.619, 160.004L747.669, 159.445L748.853, 158.989L749.809, 158.8L750.548, 158.683L751, 158.4L751.357, 158.224L752.105, 158.101L753.136, 158.031L754.343, 158.012L756.853, 158.127L757.94, 158.261L758.772, 158.443L761.018, 159.278L763.111, 160.336L765.032, 161.597L766.759, 163.042L768.272, 164.652L769.552, 166.408L770.577, 168.291L771.328, 170.282L771.376, 170.6L771.422, 171.21L771.465, 172.093L771.505, 173.229L771.543, 174.599L771.579, 176.184L771.641, 179.919L771.693, 184.279L771.734, 189.109L771.763, 194.252L771.78, 199.553L771.785, 204.857L771.778, 210.008L771.758, 214.851L771.724, 219.231L771.677, 222.991L771.649, 224.59L771.616, 225.976L771.581, 227.129L771.541, 228.031L771.499, 228.661L771.452, 229L770.93, 230.468L770.116, 232.106L767.951, 235.444L766.768, 236.918L765.632, 238.11L764.625, 238.909L763.833, 239.2L763.394, 239.288L763.133, 239.5L762.714, 240.097L762.052, 240.6L761.177, 241.009L760.12, 241.326L757.584, 241.69L754.692, 241.707L751.691, 241.387L748.828, 240.744L746.349, 239.791L745.331, 239.203L744.502, 238.541L743.09, 237.331L741.758, 236.148L740.646, 234.883L739.737, 233.489L739.012, 231.921L738.455, 230.134L738.048, 228.082L737.774, 225.719L737.615, 223L737.466, 219.987L737.243, 217.604L736.915, 215.787L736.448, 214.47L735.811, 213.59L734.971, 213.082L733.897, 212.883L732.555, 212.928L731.382, 213.021L730.519, 213.282L730.189, 213.591L729.918, 214.079L729.702, 214.794L729.534, 215.78L729.407, 217.084L729.317, 218.752L729.256, 220.83L729.22, 223.363L729.202, 226.398L729.197, 229.981L729.198, 234.158L729.2, 238.974L729.198, 243.601L729.191, 247.69L729.176, 251.282L729.151, 254.417L729.111, 257.134L729.056, 259.473L728.982, 261.474L728.885, 263.178L728.765, 264.623L728.617, 265.851L728.228, 267.81L727.698, 269.376L727.004, 270.866L726.19, 272.223L725.114, 273.636L722.498, 276.338L721.122, 277.481L719.809, 278.387L718.641, 278.985L717.699, 279.2L717.03, 279.347L716.46, 279.7L715.471, 280.203L713.917, 280.423L711.957, 280.384L709.748, 280.114L707.45, 279.639L705.22, 278.985L703.217, 278.177L701.6, 277.243L699.435, 275.559L697.743, 273.856L696.462, 271.924L695.53, 269.548L695.175, 268.128L694.884, 266.518L694.65, 264.691L694.464, 262.62L694.318, 260.279L694.206, 257.642L694.119, 254.681L694.049, 251.371L693.999, 248.591L693.954, 246.172L693.905, 244.09L693.848, 242.32L693.775, 240.835L693.679, 239.612L693.554, 238.624L693.393, 237.847L692.935, 236.825L692.253, 236.344L691.292, 236.202L690, 236.2L688.706, 236.202L687.745, 236.343L687.063, 236.828L686.606, 237.862L686.445, 238.648L686.32, 239.648L686.225, 240.888L686.152, 242.392L686.095, 244.187L686.047, 246.298L686.002, 248.751L685.952, 251.571L685.826, 257.068L685.748, 259.566L685.665, 261.812L685.578, 263.744L685.489, 265.297L685.403, 266.408L685.321, 267.015L684.659, 269.135L683.713, 271.158L682.511, 273.054L681.079, 274.795L679.445, 276.351L677.636, 277.694L675.679, 278.795L673.6, 279.623L672.54, 279.866L671.163, 280.044L667.979, 280.202L666.432, 280.18L665.089, 280.09L664.081, 279.93L663.539, 279.699L662.969, 279.346L662.301, 279.2L661.361, 278.984L660.192, 278.386L658.878, 277.479L657.502, 276.338L654.895, 273.649L653.829, 272.25L653.033, 270.913L651.823, 267.903L651.43, 266.134L651.152, 263.902L651.049, 262.544L650.969, 260.989L650.907, 259.209L650.862, 257.179L650.831, 254.87L650.812, 252.255L650.803, 249.308L650.8, 246.002L650.8, 228.762L649.731, 227.771L648.484, 226.866L647.261, 226.445L646.097, 226.485L645.026, 226.962L644.084, 227.852L643.305, 229.132L642.726, 230.776L642.381, 232.762L642.043, 235.204L641.851, 236.117L641.676, 236.655L641.187, 237.622L640.553, 238.9L639.943, 239.959L639.687, 240.282L639.509, 240.4L639.291, 240.565L639.2, 240.963L638.953, 241.619L638.266, 242.436L637.224, 243.358L635.908, 244.327L632.788, 246.181L631.151, 246.953L629.572, 247.546L628.046, 247.901L626.43, 248.04L623.031, 247.727L619.582, 246.726L616.29, 245.158L613.361, 243.14L611.001, 240.792L610.099, 239.531L609.417, 238.232L608.981, 236.91L608.816, 235.58L608.686, 234.741L608.395, 234.155L608.346, 233.948L608.301, 233.442L608.261, 232.657L608.226, 231.612L608.195, 230.328L608.168, 228.824L608.126, 225.234L608.1, 220.999L608.09, 216.277L608.094, 211.224L608.111, 205.998L608.185, 195.654L608.239, 190.85L608.305, 186.502L608.38, 182.765L608.421, 181.176L608.465, 179.798L608.511, 178.652L608.559, 177.757L608.608, 177.133L608.66, 176.8L609.152, 175.289L609.67, 174.013L610.139, 173.13L610.488, 172.8L610.708, 172.637L610.8, 172.244L610.982, 171.764L611.483, 171.074L612.232, 170.24L613.158, 169.328L615.261, 167.531L616.298, 166.779L617.232, 166.212L619.567, 165.213L622.047, 164.573L624.6, 164.285L627.156, 164.342L629.644, 164.739L631.994, 165.468L634.135, 166.524L635.996, 167.9L636.769, 168.536L637.228, 168.8L637.452, 168.956L637.835, 169.384L638.911, 170.823L640.13, 172.651L641.161, 174.399L641.685, 175.565L642.006, 177.003L642.115, 178.004L642.204, 179.289L642.283, 180.93L642.361, 183L642.527, 186.05L642.802, 188.51L643.209, 190.422L643.769, 191.823L644.504, 192.752L645.436, 193.25L646.586, 193.355L647.977, 193.107L648.973, 192.87L649.703, 192.523L650.209, 191.684L650.39, 190.96L650.531, 189.969L650.636, 188.664L650.71, 186.996L650.759, 184.918L650.787, 182.382L650.801, 179.34L650.804, 175.744L650.802, 171.547L650.8, 166.7L650.801, 162.169L650.805, 158.181L650.815, 154.695L650.832, 151.67L650.86, 149.065L650.899, 146.839L650.954, 144.951L651.025, 143.36L651.115, 142.025L651.227, 140.905L651.524, 139.145L651.933, 137.753L652.473, 136.4L654.235, 133.192L656.524, 130.504L659.243, 128.374L662.291, 126.839L665.571, 125.939L668.983, 125.71L672.429, 126.19L675.81, 127.419"/><path stroke="black" fill="none" stroke-width="1" d="M709.587, 135.957L710.942, 135.646L712.228, 135.594L713.434, 135.777L714.546, 136.17L715.552, 136.75L716.44, 137.493L717.814, 139.372L718.567, 141.615L718.601, 144.029L718.317, 145.242L717.817, 146.425L717.087, 147.556L716.116, 148.61L714.8, 149.82L714.8, 162.916L714.829, 168.055L714.862, 170.343L714.907, 172.368L714.961, 174.073L715.023, 175.402L715.092, 176.298L715.165, 176.705L715.394, 177.163L715.748, 177.897L716.637, 179.787L717.844, 182.009L719.281, 183.946L720.967, 185.608L722.921, 187.009L725.162, 188.158L727.71, 189.069L730.583, 189.751L733.8, 190.218L736.642, 190.58L739.141, 191.035L741.352, 191.603L743.328, 192.308L745.121, 193.172L746.786, 194.216L748.374, 195.462L749.941, 196.934L751.17, 198.207L752.198, 199.349L753.811, 201.495L755.105, 203.877L755.733, 205.314L756.404, 207L756.866, 208.56L757.246, 210.526L757.505, 212.638L757.6, 214.631L757.633, 216.108L757.823, 217.059L758.301, 217.827L759.201, 218.755L760.197, 219.891L760.94, 221.094L761.444, 222.341L761.721, 223.607L761.784, 224.867L761.649, 226.098L760.831, 228.374L760.176, 229.371L759.374, 230.24L758.44, 230.959L757.386, 231.502L756.225, 231.846L754.972, 231.966L753.638, 231.837L752.239, 231.436L750.364, 230.447L748.938, 229.13L747.97, 227.562L747.472, 225.822L747.455, 223.987L747.93, 222.133L748.909, 220.339L750.403, 218.681L752.108, 217.162L751.843, 214.881L751.663, 213.36L751.504, 212.118L751.36, 211.113L751.223, 210.302L750.932, 209.09L750.569, 208.14L750.167, 207.164L750, 206.59L749.779, 205.908L749.176, 204.939L748.28, 203.781L747.183, 202.53L744.74, 200.141L743.576, 199.197L742.568, 198.55L741.579, 198.032L740.515, 197.469L739.06, 196.906L737.013, 196.437L734.447, 196.074L731.435, 195.83L730.018, 195.72L728.795, 195.567L727.897, 195.392L727.455, 195.215L726.898, 194.922L726.141, 194.8L725.644, 194.721L724.954, 194.506L723.362, 193.8L721.926, 193.094L721.405, 192.879L721.114, 192.8L720.831, 192.716L720.392, 192.479L719.16, 191.629L717.644, 190.421L716.073, 189.025L714.346, 187.4L713.573, 188.344L713.027, 189.188L712.8, 189.89L712.717, 190.239L712.494, 190.822L711.784, 192.374L710.981, 193.911L710.641, 194.476L710.394, 194.8L710.16, 195.057L709.68, 195.61L709.024, 196.377L708.262, 197.277L706.298, 199.271L705.227, 200.179L704.271, 200.869L702.769, 201.889L702.282, 202.27L702.067, 202.493L701.847, 202.71L701.505, 202.8L701.178, 202.874L700.604, 203.076L699.039, 203.739L697.119, 204.441L694.676, 205.02L691.704, 205.478L688.2, 205.814L686.928, 205.934L685.828, 206.089L685.02, 206.259L684.62, 206.424L684.134, 206.69L683.501, 206.8L682.688, 207.044L681.497, 207.696L680.076, 208.64L678.577, 209.758L677.15, 210.932L675.945, 212.044L675.111, 212.978L674.8, 213.614L674.684, 213.888L674.408, 214L674.057, 214.294L673.764, 215L673.482, 215.706L673.157, 216L672.905, 216.27L672.8, 216.92L672.653, 217.717L672.3, 218.34L672.167, 218.687L672.055, 219.486L671.96, 220.803L671.881, 222.703L671.815, 225.251L671.761, 228.513L671.737, 230.432L671.716, 232.554L671.696, 234.887L671.678, 237.439L671.556, 256.04L673.578, 258.252L674.425, 259.248L675.076, 260.157L675.502, 260.934L675.672, 261.532L675.61, 264.179L675.398, 265.25L675.073, 266.084L674.403, 267.253L673.834, 268.104L673.375, 268.624L673.035, 268.8L672.555, 268.997L671.922, 269.471L670.956, 270.052L669.754, 270.325L668.398, 270.312L666.971, 270.037L665.553, 269.521L664.226, 268.788L663.073, 267.86L662.174, 266.76L661.567, 265.469L661.252, 264.049L661.211, 262.578L661.425, 261.13L661.877, 259.781L662.548, 258.607L663.421, 257.683L664.478, 257.085L665.038, 256.496L665.426, 255.404L665.496, 254.728L665.548, 253.6L665.581, 252.087L665.598, 250.256L665.599, 248.174L665.587, 245.908L665.523, 241.089L665.416, 236.335L665.35, 234.149L665.276, 232.179L665.197, 230.492L665.112, 229.156L665.024, 228.236L664.934, 227.8L663.368, 224.661L662.693, 223.49L661.783, 222.209L659.575, 219.643L658.435, 218.522L657.376, 217.62L656.477, 217.019L655.817, 216.8L655.381, 216.711L655.2, 216.498L655.05, 216.255L654.603, 216.003L653.865, 215.745L652.845, 215.482L651.547, 215.215L649.978, 214.946L648.144, 214.677L646.053, 214.408L643.632, 214.085L641.584, 213.756L640.126, 213.459L639.685, 213.335L639.473, 213.233L638.974, 212.927L638.381, 212.8L637.604, 212.619L636.496, 212.187L635.435, 211.669L634.8, 211.231L634.345, 210.892L633.531, 210.4L632.764, 209.885L631.822, 209.124L629.672, 207.118L627.596, 204.896L626.746, 203.865L626.107, 202.972L625.677, 202.206L625.079, 201.012L624.37, 199.504L623.605, 197.8L623.254, 196.757L622.96, 195.358L622.722, 193.579L622.535, 191.4L622.392, 189.831L622.148, 188.812L621.682, 188.036L620.872, 187.193L619.286, 185.223L618.381, 183.107L618.118, 180.971L618.456, 178.941L619.353, 177.143L620.771, 175.703L622.667, 174.747L623.782, 174.489L625.001, 174.4L626.395, 174.486L627.661, 174.735L629.792, 175.666L631.356, 177.085L632.319, 178.884L632.643, 180.955L632.293, 183.188L631.233, 185.475L629.427, 187.708L628.631, 188.547L628.208, 189.18L628.083, 189.777L628.181, 190.508L628.763, 193.8L629.214, 195.695L629.973, 197.612L630.998, 199.499L632.248, 201.301L633.68, 202.966L635.254, 204.439L636.928, 205.667L638.661, 206.596L639.972, 207.19L640.962, 207.676L641.513, 207.848L642.451, 208.014L644.962, 208.255L647.99, 208.504L650.786, 208.92L653.368, 209.51L655.753, 210.281L657.957, 211.239L659.999, 212.391L661.894, 213.742L663.66, 215.3L664.87, 216.303L665.848, 216.741L666.568, 216.608L667.006, 215.9L667.738, 213.933L668.782, 211.947L670.095, 209.99L671.635, 208.11L673.358, 206.355L675.222, 204.773L677.184, 203.412L679.2, 202.319L680.494, 201.726L681.576, 201.264L683.507, 200.627L684.561, 200.402L685.811, 200.205L687.358, 200.011L689.305, 199.794L691.571, 199.523L693.531, 199.243L694.976, 198.987L695.439, 198.878L695.695, 198.787L696.345, 198.514L696.932, 198.4L697.467, 198.229L698.307, 197.764L699.354, 197.079L700.51, 196.247L702.759, 194.433L703.656, 193.598L704.271, 192.908L705.138, 191.784L705.459, 191.397L705.645, 191.2L705.833, 190.933L706.16, 190.354L707.047, 188.6L708.2, 186.2L708.2, 167.8L708.2, 164.624L708.198, 161.836L708.193, 159.409L708.185, 157.318L708.172, 155.537L708.153, 154.04L708.128, 152.802L708.094, 151.797L707.997, 150.382L707.855, 149.59L707.659, 149.213L707.4, 149.047L706.53, 148.553L705.811, 147.921L704.809, 146.322L704.366, 144.414L704.455, 142.361L705.049, 140.325L706.121, 138.47L707.642, 136.96L709.587, 135.957"/></svg>